<svg xmlns="http://www.w3.org/2000/svg" width="1920" height="574"><path fill="#EBEBEB" stroke="#494949" stroke-linecap="round" stroke-linejoin="round" stroke-miterlimit="10" stroke-width="1.2" d="M666.39 501.21c16.6 0 30.08-15 30.08-31.61a30.08 30.08 0 00-30.07-30.08c-.47 0-.94 0-1.37.03a36.8 36.8 0 00-34.25-23.43 36.8 36.8 0 00-35.06 25.62 36.76 36.76 0 0028.36 60.16l42.3-.69z"/><circle cx="1346.096" cy="478.468" r="31.967" fill="#EBEBEB" stroke="#494949" stroke-linecap="round" stroke-linejoin="round" stroke-miterlimit="10" stroke-width="1.2"/><path fill="#EBEBEB" d="M1583.58 393.54l-4.59 11.51-4-2.18s0-13.54 0-28.12-14.45-20.05-26.05-22.01c1.92-48.09-7.1-63.1-16.64-80.77 5.19 1.08 10.35 3.96 15.32 8.61a97.18 97.18 0 0114.57 20.02c.4.74.79 1.5 1.18 2.28 11.73 23.64 17.34 63.44 20.21 90.66zM949.33 441h7v11h-7zM949.67 453.33H953V469h-3.33zM953.2 565.83l-3.66-3.66.13-46.84h3.66zM67.67 306.08h34v32.67h-34zM67.67 366.67h34v32.66h-34zM128.92 306.08h34v32.67h-34zM128.92 366.67h34v32.66h-34zM67.67 428.08h34v32.67h-34zM67.67 488.5h34v32.66h-34zM242 307.33l-15.33 4v-31.66H242zM211.04 226.95h9v16h-9zM217.04 211.95h8v15h-8zM240.04 264.95l14-22h-16l-13 22zM234 416.98h8v52.66h-8zM406.66 418h8v52.67h-8zM233.98 482.64h8v35.33h-8zM406.65 483.34h8v34.33h-8zM495 571l-338.33-.04v-6l340.33.05zM398 399v3l-.02 133.01V543h-28v-.03h23V529h-5.83v-.03L384.67 407v-.03H393V399zM280.17 406.97l-1.18 57.08.01-57.08zM310 398.99v3l-.02 133v7.5h-6v-13.52h-5.83l-2.48-122H304v-7.98zM230 398.97v3l-.02 133v8h-8v-8h.5v-6h-5.83l-2.48-122h8.33v-5h-.5v-3z"/><path fill="#EBEBEB" d="M273 398.98v3l-43-.01h-8v-3h8zM361 399v3l-54-.01-6-.01v-2.99l-22-.01h22l6 .01zM444 398.01v3l-50-.01h-5v-3h5zM445.67 535.01v9l-223.69-.04v-9h8l46 .01v7.99h29v-7.98h2l55 .01v7.97h31v-7.96zM183.97 549.99H483v5H183.97z"/><path fill="#EBEBEB" d="M315.3 445h36.36v99H315.3zM197.01 337.99h273v9h-273zM408.34 359h10v41.5h-10zM415.02 324l-166-.02 84.75-15.24z"/><path fill="#FFF" d="M221.98 534.97h.5v8h-.5zM222 398.97h.5v3h-.5zM301 398.97v.02l-22-.01h-6v-.01zM360.98 528.97h4.67v.03h-4.67zM383.15 528.97h5.83v.03h-5.83zM361 398.97h28v.03h-28zM360.98 542.97h28v.03h-28zM361 406.97h7.17v.03H361zM380.67 406.97H389v.03h-8.33z"/><path fill="#EBEBEB" d="M1450.87 399.67v171H1475.54s-10.67-81.67-6-159.67c-6.67-4.67-18.67-11.33-18.67-11.33zM1747.07 571.22c-10.1-185.04 21.77-270.56 21.77-270.56s-27.99 164.05 3.89 270.56c-7.78 0-25.66 0-25.66 0zM1862.92 334.1v237.12h7.77V321.65zM1854.37 240.8v101.07l9.33-12.44V240.4zM1718.3 241.57s102.63 0 128.29-57.53c-26.44-7-108.85 19.44-128.28 57.53z"/><path fill="#EBEBEB" d="M1844.2 351.56v-44.18s-87.94 107.2-61.89 264.62c10.86 0 30.4 0 30.4 0s-21.71-119.96 32.92-215.12"/><path fill="none" stroke="#494949" stroke-linecap="round" stroke-linejoin="round" stroke-miterlimit="10" stroke-width="1.2" d="M1346.1 478.47l-.02 93.53M1327.81 465.97a21.94 21.94 0 005.07 30.8M8 572.02l663 .02M693.97 572.05h19M1544.1 187.94h-7.5"/><path fill="#FFF" stroke="#494949" stroke-linecap="round" stroke-linejoin="round" stroke-miterlimit="10" stroke-width="2.5" d="M915.67 473.33h112c5.5 0 13.46 2.88 17.7 6.39l9.93 8.23c4.23 3.51 4.23 9.26 0 12.77l-9.94 8.23c-4.23 3.51-12.2 6.38-17.7 6.38h-166c-5.5 0-10-4.5-10-10v-22c0-5.5 4.5-10 10-10H884M903 473.33h4.67"/><path fill="#FFF" stroke="#494949" stroke-linecap="round" stroke-linejoin="round" stroke-miterlimit="10" stroke-width="1.5" d="M945.5 455.5V468M953.5 455.5v13M945.5 518.5l-.13 34M953.38 539v26.5M953.5 518.5l-.13 11M941.5 440.5h16v12h-16z"/><path fill="none" stroke="#494949" stroke-linecap="round" stroke-linejoin="round" stroke-miterlimit="10" stroke-width="2" d="M930.33 486.33h13M889.33 504v-17.67H897M895.17 495h-5M921.17 487v11.17a5.5 5.5 0 01-5.5 5.5h0a5.5 5.5 0 01-5.5-5.5V487M968 487v11.17a5.5 5.5 0 01-5.5 5.5h0a5.5 5.5 0 01-5.5-5.5V487M938.83 487.33c0 .5 0 16.5 0 16.5M1013.33 503.5h-8.66v-16.67h8M1005.33 495.33h5.84M982.58 495.17h4.84c2.34 0 4.25-1.9 4.25-4.25h0c0-2.35-1.9-4.25-4.25-4.25h-4.84v17.16M987.33 495.33l4.34 8.34"/><path fill="none" stroke="#494949" stroke-linecap="round" stroke-linejoin="round" stroke-miterlimit="10" stroke-width="1.2" d="M723.38 572h204.5s0-17-6-28c11 12.5 15 25 15 25-.5-7.5 1.5-12 1.5-12l9 14s8.5-3.5 15.5-4c2 1 .5 5.5.5 5.5h48M1296 572h-14M242.01 308l.02-28.05M174.67 278.95h71.36v-14H42.68M210.33 242.94l43.71.01-11.67 18.34M186 242.94l-156.96.01 11.67 18.34M205.04 241.94v-13M220.04 241.95v-13M200.04 226.94h25v-15h-25v9M46 508v64M46 468.67v26.66M46 274v184.67M189.25 242.94h3M392.15 542.98v-14h-4.67l-2.53-122h7.17v-8M363.12 398.99v8h8.33l-2.47 122h-5.84v14M333.45 555.99l171.48-.03M483.15 554.96v-11l-149.7.03M473.15 542.97v-14h-4.67l-2.53-122h7.17v-8M445.12 398.97v8h8.33l-2.47 122h-5.84v14M412.46 397.98l66.66-.01v-39h-65"/><path fill="none" stroke="#494949" stroke-linecap="round" stroke-linejoin="round" stroke-miterlimit="10" stroke-width="1.2" d="M333.45 399l29.67-.01 29-.01h17v-45l-75.67.02M407.14 482.98h27v34h-27zM353.14 540.99v-96h-19.69M353.06 432.75s-1.04-16.65-19.6-17.12M333.45 436h19.68M470.11 358.97v-20.64M333.45 337.99l144.66-.02v-15L333.61 294l-.17.04M434.13 453.97v16l-13 .01m13-16.01v-38l-27 .01v54h14M411.8 501.64l11 11.34"/><g fill="none" stroke="#494949" stroke-linecap="round" stroke-linejoin="round" stroke-miterlimit="10" stroke-width="1.2"><path d="M274.98 542.98v-14h4.67l2.52-122H275v-8M304 398.99v8h-8.33l2.48 122h5.83v14M333.67 555.99l-181-.03M183.97 554.96l.01-11 149.69.03M193.98 542.97v-14h4.67l2.52-122H194v-8M222 398.97v8h-8.33l2.48 122h5.83v14M254.67 397.98l-66.67-.01v-39h65"/><path d="M333.67 399l-29.67-.01-29-.01h-17l.01-45 75.66.02M232.98 482.98h27v34h-27zM313.98 540.99l.01-96h19.68M314.06 432.75s1.04-16.65 19.61-17.12M333.67 436h-19.68M197 358.97l.01-20.64M333.67 337.99l-144.66-.02.01-15L333.5 294l.17.04M232.99 453.97v16l13 .01m-13-16.01l.01-38 27 .01-.01 54h-14M238.32 454.64l11 11.34M238.32 460.64l4.77 4.91"/></g><path fill="none" stroke="#494949" stroke-linecap="round" stroke-linejoin="round" stroke-miterlimit="10" stroke-width="1.2" d="M641.9 476.25l-.02 93.59"/><g fill="none" stroke="#494949" stroke-linecap="round" stroke-linejoin="round" stroke-miterlimit="10" stroke-width="1.2"><path d="M289.33 170.1h46.5M349.33 170.1h15"/></g><path fill="none" stroke="#494949" stroke-linecap="round" stroke-linejoin="round" stroke-miterlimit="10" stroke-width="1.2" d="M443.7 112.43h19.5M522.46 245.63h-21M74.27 84.75h66.5"/><g fill="none" stroke="#494949" stroke-linecap="round" stroke-linejoin="round" stroke-miterlimit="10" stroke-width="1.2"><path d="M1907.58 568.74v-99.1l-28.23-12.7M1894.55 462.92V376.6l-15.2-6.51M1885.87 369v-74.45l-16.29-6.98"/></g><path fill="none" stroke="#494949" stroke-linecap="round" stroke-linejoin="round" stroke-miterlimit="10" stroke-width="1.2" d="M1812.71 572s-24.97-161.75 58.62-249.69v248.91"/><path fill="none" stroke="#494949" stroke-linecap="round" stroke-linejoin="round" stroke-miterlimit="10" stroke-width="1.2" d="M1863.73 329.9V240.9h-27.14v15.2l-65.13 41.25c-14.12 52.1-24.97 174.78 1.08 273.57M1835.5 270.47c-44.5 57.27-78.15 179.94-53.18 301.53M1871.34 403.73h-31.06M1871.34 419.74h-31.06M1871.34 435.76h-31.06M1861.16 467.78h-31.06M1863.73 483.8h-23.45"/><path fill="none" stroke="#494949" stroke-linecap="round" stroke-linejoin="round" stroke-miterlimit="10" stroke-width="1.2" d="M1846.07 228.22v-44.44c-84.49-1.26-128.03 56.17-128.03 56.17v330.88M1718.04 239.95c22.48 0 110.49-4.8 128.03-56.17M1528.16 313.48c-12.08 29.95-31.42 60.23-53.46 94.02M1479.2 360.27s22.12-22 37.45-48.3"/><path fill="none" stroke="#494949" stroke-linecap="round" stroke-linejoin="round" stroke-miterlimit="10" stroke-width="1.2" d="M1581.3 373.85c-1.58-27.45-9.07-49.41-9.07-49.41a163.18 163.18 0 00-10.04-23.84c-4.55-8.56-9.46-15.23-14.57-20.02-4.97-4.65-10.13-7.53-15.32-8.61-40.22-8.43-82.52 90.49-56.09 299.03M1556.45 309.24c1.93.66 3.85 1.41 5.75 2.26M1491.7 311.5s18-6.87 39.83-6.42M1400.54 535v-32.88l33.67-25.45M1416.04 486V380.5l47.5 26.83M1359.84 571.94l85.7-65.94M1912 573l-604-1M1443.87 329s-6-9-14.5-9-26.5 0-26.5 0l8.5 8.5h22.5M1425.87 333.5l-3.5 3h-19l-12.25-12.25M1389.37 318h-9s-3.5 5.5 1 9.5h8M1423.37 324h0zM1419.62 324h0zM1415.37 324h0zM1365.87 322.83h-37.33M1373.87 327.5h-16M1522.4 255.16s23.1-1.98 41.1 17.8M1516.58 234.42s36.37-3.11 64.72 28.04M1572.62 225.87a111.85 111.85 0 0123.62 19.76M1512.64 209.41s24.75-2.12 52.33 12.12"/><g fill="none" stroke="#494949" stroke-linecap="round" stroke-linejoin="round" stroke-miterlimit="10" stroke-width="1.2"><path d="M1694.37 106.4a68.37 68.37 0 00-87.1 35.15M1618.15 170.02a22.4 22.4 0 00-40.51-16.07M1700.35 48.45a70.2 70.2 0 00-36.5 51.2M1576.14 84.75s-.78 7.34 6.56 13.13c7.34 5.8 11.98 9.27 11.98 9.27l.39-8.88-6.18-5.03"/><path d="M1573.82 85.9s-28.97-15.45-27.04-47.12c27.04-1.55 41.72 12.74 63.74 48.29.38 3.86-5.02 12.74-13.14 15.06M1554.2 66.02c2.24-.98 6.61-3.53 11.9-9.86"/><path d="M1576.17 77.97a3.67 3.67 0 01-5.18.23l-8.84-8.08a3.67 3.67 0 01-.23-5.18h0a3.67 3.67 0 015.19-.23l8.83 8.08a3.67 3.67 0 01.23 5.18h0zM1616.22 95.27a7.73 7.73 0 000-15.46M1589.53 113.11a6.18 6.18 0 0012.36 0M1619.88 102.6a6.7 6.7 0 003.43-12.95M1600.35 103.93s7.72 9.79 20.6 17"/></g><path fill="none" stroke="#494949" stroke-linecap="round" stroke-linejoin="round" stroke-miterlimit="10" stroke-width="1.2" d="M1360.45 416.84h7.5M1342.45 416.84h-15M1449.2 63.74h24"/><g fill="none" stroke="#FF0083" stroke-linecap="round" stroke-linejoin="round" stroke-miterlimit="10" stroke-width="4"><circle cx="1464.57" cy="246.45" r="20.355"/><ellipse cx="1464.569" cy="246.45" rx="10.177" ry="20.356" transform="rotate(14.07 1464.705 246.483)"/><path d="M1449.53 233.35l34.96 8.77M1445.37 251.25l34.04 8.54M1469.4 227.15l-9.71 38.77"/></g><g fill="#EBEBEB"><circle cx="237.388" cy="166.034" r="4"/><path d="M223.58 203.58c0 2.35-.8 4.52-2.13 6.25h-16.24a10.23 10.23 0 018.12-16.5c5.66 0 10.25 4.6 10.25 10.25z"/><path d="M243.08 190.08a9.5 9.5 0 01-14.87 7.84 12.1 12.1 0 01-3.32 2.43 12 12 0 00-16.87-7.54 12 12 0 0120.76-10.94 9.52 9.52 0 0114.3 8.21z"/></g><g fill="none" stroke="#494949" stroke-linecap="round" stroke-linejoin="round" stroke-miterlimit="10" stroke-width="1.2"><path d="M1326.5 129.69H1280M1266.5 129.69h-15"/></g><g><path fill="#FFF" stroke="#494949" stroke-linecap="round" stroke-linejoin="round" stroke-miterlimit="10" stroke-width="2.3" d="M206.68 555.33L188.35 532l-29-5.83-4.34 31.83-32.66 9h3.75a4.92 4.92 0 014.91 5.17h-21.16v-1.46c0-4.61 2.55-8.81 6.62-10.94.2-.11 17.68-8.67 17.88-8.77v-.08l-6.67-36.09-2.33-33.16c2.13-20.12 18.68-25.63 40.83-31.84l13.17 10.84 6.83 31.83c1.98 6.58-5.9 12.17-11.62 5.93-.13-.14-3.38-3.93-3.38-3.93l2.17 10.33 29 14.17 17.97 52-16.3-13 2.66-2.67h0z"/><path fill="#EBEBEB" d="M140.19 476.27l-2.15-5.2-10.07 4.04c-.1.26-.2.54-.27.8l-.06.17c-.03.09-.06.17-.09.26a39 39 0 00-.36 1.27l1.37 3.34 11.63-4.68z"/><path fill="#FFF" stroke="#494949" stroke-linecap="round" stroke-linejoin="round" stroke-miterlimit="10" stroke-width="2.3" d="M192.89 440.36a13 13 0 01-1.17 4.05l-2.65 5.6-2.74 5.8c-7.16 15.55-34.9 3.67-24.83-17.65l3.1-6.57c.01-.03.03-.06.04-.09a13.16 13.16 0 0117.5-6.19l3.3 1.56a13.14 13.14 0 017.45 13.5z"/><path fill="#FFF" stroke="#494949" stroke-linecap="round" stroke-linejoin="round" stroke-miterlimit="10" stroke-width="2.3" d="M194.18 437c2.35-2.57-1.36-12.16-10.44-16.14s-18.24 2.69-17.7 7.12c.66 5.2 24.77 12.69 28.14 9.01z"/><path fill="#494949" d="M184.1 421.11c-.36 1.44-2.35 2.2-4.44 1.7-2.09-.51-3.5-2.1-3.14-3.54.36-1.44 2.34-2.2 4.43-1.69 2.1.5 3.5 2.09 3.14 3.53z"/><path fill="#FF0083" d="M186.16 449.3c-5.25.01-8.97-.46-10.78-1.34-2.44-1.18-8.68-6.26-13.7-10.6-.35-.38-.25-1.56.3-2.82.67-1.54 1.61-2.4 2-2.4.06.02.12.03.17.03.02 0 .03 0 .05 0l.03.02c.05.01.1.02.14.03 4.06 2.69 11.05 7.18 13.47 7.87 3.27.95 8.4 1.08 13.45 1.08h1.66c.18.21.3.86.04 2.08-.65 2.98-2.77 6.02-3.82 6.02-.03 0-.12 0-.13 0-.9.02-1.88.04-2.88.04z"/><path fill="#494949" d="M164.04 432.91h.01s.01 0 .02 0c4.93 3.27 11.19 7.22 13.56 7.9 3.36.97 8.55 1.1 13.66 1.1h1.1c.03.67-.23 2.08-1.1 3.84-.93 1.88-1.84 2.67-2.14 2.77-.03 0-.06 0-.09 0-.01 0-.03 0-.04 0-.98.02-1.95.04-2.86.04-5.06 0-8.77-.45-10.45-1.27-2.36-1.15-8.46-6.1-13.43-10.4-.07-.18-.09-.77.23-1.67a5 5 0 011.53-2.3m-.05-1.52c-1.79 0-4.27 4.95-2.8 6.52 3.33 2.89 10.91 9.28 13.87 10.72 2.3 1.13 6.95 1.42 11.1 1.42a98.96 98.96 0 003.01-.04c2.61 0 6.28-8.56 4.01-9.6-.58 0-1.21 0-1.89 0-4.16 0-9.86-.07-13.24-1.05-2.54-.73-10.61-6.02-13.4-7.87 0 0-.01 0-.02 0-.07 0-.36-.09-.43-.09-.01 0-.02 0-.02 0a.9.9 0 00-.2-.01z"/><path fill="#FFF" d="M187.98 447.19c-1.54-.06-2.84-.7-3.36-1.61h-.2c-.62.7-1.86 1.13-3.3 1.13-.21 0-.42 0-.64-.02-1.49-.12-2.83-.68-3.5-1.46-.34-.4-.5-.85-.46-1.3.1-1.24 1.64-2.1 3.75-2.1.2 0 .4 0 .6.02 1.58.13 2.93.72 3.56 1.54l.5.01c.62-.67 1.74-1.07 3.01-1.07h.22c2.07.08 3.65 1.2 3.6 2.57-.05 1.3-1.58 2.3-3.56 2.3l-.22-.01z"/><path fill="#494949" d="M180.27 442.42c.18 0 .37.01.55.02 1.58.14 2.88.78 3.29 1.54l1.1.03c.43-.65 1.49-1.08 2.73-1.08.07 0 .13 0 .2 0 1.7.07 3.06.93 3.02 1.94-.03.97-1.35 1.72-2.96 1.72-.06 0-.13 0-.2 0-1.52-.06-2.75-.75-2.99-1.6l-.9-.03c-.37.69-1.56 1.15-3 1.15-.18 0-.38 0-.57-.02-1.97-.15-3.5-1.1-3.42-2.1.07-.92 1.44-1.57 3.15-1.57m0-1.2c-2.48 0-4.22 1.07-4.35 2.67-.05.6.16 1.2.6 1.73.78.91 2.25 1.54 3.92 1.67.22.02.45.02.68.02a5.5 5.5 0 003.32-.95 4.93 4.93 0 003.76 1.43c2.31 0 4.1-1.23 4.16-2.87.07-1.72-1.73-3.1-4.18-3.19-.08 0-.16 0-.24 0-1.3 0-2.48.4-3.24 1.05a5.97 5.97 0 00-3.77-1.53 7.35 7.35 0 00-.66-.03z"/><path fill="none" stroke="#494949" stroke-linecap="round" stroke-linejoin="round" stroke-miterlimit="10" stroke-width="1.3" d="M173.75 455.16s1.6 2.17 5.6 2.42"/><path fill="#EBEBEB" d="M168.69 489.67l-.15-3-10.1.97-1.12 1.4-.42-.63-3.16 5.17 12.86-1.1 2.2-.2z"/><path fill="#FFF" stroke="#494949" stroke-linecap="round" stroke-linejoin="round" stroke-miterlimit="10" stroke-width="2.3" d="M155.35 463.17c.17-6.67-6.67-8.84-14.83-4s-13.84 14.16-15.17 22.5-1.33 14.66-7.83 14.66-22.67-6.66-22.67-26.5c0-11.59-1.1-17.07 6.17-26.16 3.46-4.34 13.5-12.34 26.83-12.34s27.67 5.34 31.67 19.84c1.16 3.66 1.16 11 .16 14.83-.52-.52-1 5.67-3.66 4.33-4.55-2.27-.67-7.16-.67-7.16z"/><path fill="#EBEBEB" d="M170.74 479.42l11.49-.63-1.21-5.6-10.64.6zM169.12 469.92l11-.61-.02-.37-1.11-5.22-10.23.56zM152.18 463.25l-13.65-.01.06 5.65 9.34-.14zM156.3 475.5l-5.37-1.72-11.58-.28 1.36 5.16.35.85 11.24-.06 2.88-2.07z"/><path fill="none" stroke="#494949" stroke-linecap="round" stroke-linejoin="round" stroke-miterlimit="10" stroke-width="1.3" d="M170.68 473.38l.63 15.87"/><path fill="#FFF" d="M177.18 483.33l-14.5-12.83-5.66 5.67 14.16 18.33"/><path fill="none" d="M138.59 468.89l-.06-5.65 11.03-.01.06 5.64-11.03.02z"/><path fill="#EBEBEB" d="M117.5 560.37l8.12 4.7 7.6-2.1-9.64-5.58zM126.45 555.98l10.37 6 7.61-2.1-11.9-6.88zM135.33 550.74c0 .02.01.12.02.14 0 .1 0 .2-.01.29l18.96 4.69.76-5.61-20.77-5.14 1.04 5.63zM133.67 541.76l22.3 1.78.77-5.58-24.13-1.93zM183.57 510.94l-16.2 15.82-6.68-1.34 5.98-5.84-29.45 6 20.97 1.7-.76 5.58-25.79-2.05-.04-.21c0-.02 0-.04 0-.06l-.69-3.68-.37-2c0-.01 0-.03 0-.05l-.65-3.5 44.21-8.98 4.11-4.01 5.36 2.62zM188.92 513.55l-14.9 14.55 6.68 1.34 13.59-13.27zM201.54 519.72l-3.47-1.7-12.67 12.37 3.15.63a1 1 0 01.6.36l1.41 1.82 11.7-11.42-.72-2.06zM204.78 529.07l-13.22 5.39 3.61 4.6 11.45-4.67zM208.04 538.5l-10.07 4.12 3.61 4.6 8.3-3.39zM211.35 548.1l-6.87 2.8 3 3.81a1 1 0 01.12 1l5.59-2.28-1.84-5.32zM177 507.7l-48.16 7.9-.17-.9-.33-4.73 38.38-6.16-38.64 2.45-.39-5.61 6.15-.4a5.48 5.48 0 008.81 2.21l3.3-2.97 24.92-1.58 1.5 7.13c.07.3.26.55.54.69l4.09 1.97zM140.42 479.19l-11.63 4.67 2.15 5.21 11.62-4.67-1.75-4.26-.35-.85z"/><path fill="#EBEBEB" d="M141.06 488.68l-4.14 3.84 6.48 7.13.93 1.02 1.25-1.16 2.89-2.68zM154.97 491.58l-7.41-8.15-4.14 3.84 7.4 8.15zM160.1 487.64l2.62-2.43-6.68-7.34-.73-.81-3.26 3.01-.88.82 6.84 7.53.57.62zM169.5 492l8.01-7.16 3.17 3.54-8 7.17zM164 485.5l8.01-7.16 3.17 3.54-8 7.17zM158.57 477.98l6.32-5.65 3.16 3.54-6.31 5.65z"/><path fill="none" stroke="#494949" stroke-linecap="round" stroke-linejoin="round" stroke-miterlimit="10" stroke-width="1.3" d="M126.85 476.33l6.89 23.62a5.47 5.47 0 008.91 2.52l20.2-18.3"/><path fill="none" stroke="#494949" stroke-linecap="round" stroke-linejoin="round" stroke-miterlimit="10" stroke-width="1.3" d="M157.35 476l-13.67 10.5-3-7"/><path fill="none" stroke="#494949" stroke-linecap="round" stroke-linejoin="round" stroke-miterlimit="10" stroke-width="1.3" d="M177.18 483.33l-14.5-12.83-5.66 5.67 16.91 21.58"/><path fill="#FFF" stroke="#494949" stroke-linecap="round" stroke-linejoin="round" stroke-miterlimit="10" stroke-width="1.3" d="M155.85 475c-4.17-.5-7.67-1-7.5-5.67s2.67-5.5 4.67-5.66 7.5 1.83 7.83 6.16"/></g><g><path fill="#EDEDED" d="M530.35 538.66h4.67l-2.34 22.67h-7.33zM497.35 514h-5l14.33 47.66h5z"/><path fill="#FFF" stroke="#494949" stroke-linecap="round" stroke-linejoin="round" stroke-miterlimit="10" stroke-width="2.5" d="M544.18 440.5l35.17 65-4.5 5-15.17-9.17"/><path fill="#FFF" stroke="#494949" stroke-linecap="round" stroke-linejoin="round" stroke-miterlimit="10" stroke-width="2.5" d="M506.18 434.16c-12.66 13.67-28.16 34-16.83 79.5h71l-1.83-24.83"/><path fill="#FFF" stroke="#494949" stroke-linecap="round" stroke-linejoin="round" stroke-miterlimit="10" stroke-width="2.5" d="M548.73 427.33a12.72 12.72 0 01-9.37 15.37l-16.82 4.08a12.72 12.72 0 01-15.37-9.36l-5.83-24.04a12.72 12.72 0 019.36-15.36l16.83-4.09a12.72 12.72 0 0115.36 9.37l5.84 24.03z"/><path fill="#FFF" stroke="#494949" stroke-linecap="round" stroke-linejoin="round" stroke-miterlimit="10" stroke-width="1.5" d="M521.35 524.35l-16.41-9.53 20.75-35.73 16.41 9.52z"/><path fill="#FFF" stroke="#494949" stroke-linecap="round" stroke-linejoin="round" stroke-miterlimit="10" stroke-width="1.5" d="M538.26 489.45l-20.75 35.73-16.4-9.52 1.7-2.93 13.7 7.95 19.05-32.8z"/><path fill="#EBEBEB" stroke="#494949" stroke-linecap="round" stroke-linejoin="round" stroke-miterlimit="10" stroke-width="1.5" d="M516.51 520.68l-16.4-9.52 20.75-35.74 16.4 9.52z"/><path fill="#FFF" stroke="#494949" stroke-linecap="round" stroke-linejoin="round" stroke-miterlimit="10" stroke-width="1.5" d="M489.43 475.25l2.4 19.57a5.11 5.11 0 003.07 4.08l19.03 8.1 3-5.25-7.25-11.5.25-11.25M513.93 507l12.48 9.07a1.34 1.34 0 001.98-.48l4.06-8.12a1.33 1.33 0 00-.86-1.89l-14.66-3.83-3 5.25z"/><g fill="#FF0083" stroke="#494949" stroke-linecap="round" stroke-linejoin="round" stroke-miterlimit="10" stroke-width="2"><path d="M531.05 458.16l-11.7 4.52-.48-9.12 12.1 3.06zM534.36 458.03l11.75 1.66-1.62-9-10.4 5.82z"/><path d="M535.6 457.12a3.74 3.74 0 00-4.17-3.25 3.7 3.7 0 00-3.24 4.14 3.75 3.75 0 004.16 3.25 3.7 3.7 0 003.25-4.14z"/></g><path fill="#EBEBEB" stroke="#494949" stroke-linecap="round" stroke-linejoin="round" stroke-miterlimit="10" stroke-width="1.5" d="M519.02 433.83c4.66-.5 4.08-10.25 16.16-5.08 9.42-8.67 11.34-1.92 16.84-2-4 5.16-8.59 7.66-12.59 5.41s-5.94.72-7.33 2.25c-1.58 1.75-7.5 3.34-13.08-.58z"/><path fill="#FFF" stroke="#494949" stroke-linecap="round" stroke-linejoin="round" stroke-miterlimit="10" stroke-width="2.5" d="M558.21 395.52l-74.7 17.65 15.53-9.84 40.88-9.66z"/><path fill="#F9F9F9" d="M511.96 400.09l-12.62 3.05-8.03-33.74 12.63-3.05z"/><path fill="none" stroke="#494949" stroke-linecap="round" stroke-linejoin="round" stroke-miterlimit="10" stroke-width="2.5" d="M539.9 393.45l-40.56 9.69-8.03-33.74 40.56-9.68z"/><path fill="#FF0083" stroke="#494949" stroke-linecap="round" stroke-linejoin="round" stroke-miterlimit="10" stroke-width="2" d="M539.9 393.48l-40.56 9.66-2.84-11.95 40.56-9.66z"/><path fill="none" stroke="#494949" stroke-linecap="round" stroke-linejoin="round" stroke-miterlimit="10" stroke-width="2.5" d="M491.18 514l15 47.16M557.52 514.33l-11 46.5"/><path fill="#FFF" stroke="#494949" stroke-linecap="round" stroke-linejoin="round" stroke-miterlimit="10" stroke-width="1.5" d="M530.18 536.83l-4.5 23.67"/><path fill="none" stroke="#494949" stroke-linecap="round" stroke-linejoin="round" stroke-miterlimit="10" stroke-width="2.5" d="M555.85 571.66c0-5.52-4.4-10-9.84-10h-40.66a9.92 9.92 0 00-9.83 10h60.33zM525.18 561.83v9.83"/><path fill="#FFF" stroke="#494949" stroke-linecap="round" stroke-linejoin="round" stroke-miterlimit="10" stroke-width="1.5" d="M577.68 514l-16.33 58h4l19.83-54.17"/><path fill="#FFF" stroke="#494949" stroke-linecap="round" stroke-linejoin="round" stroke-miterlimit="10" stroke-width="1.5" d="M579.02 506.33c6.16 1 13.17 5.43 13.33 8.5.17 3.17-2.5 6.33-5.17 6s-2-6.33-6.33-5.67c-6.11.94-5.83-4-5.83-4l4-4.83z"/><path fill="none" stroke="#494949" stroke-linecap="round" stroke-linejoin="round" stroke-miterlimit="10" stroke-width="1.5" d="M507.85 438.83c3.33 0 8-2.16 6.83-19.83"/><circle cx="521.309" cy="415.623" r="7.042" fill="#EBEBEB" stroke="#494949" stroke-linecap="round" stroke-linejoin="round" stroke-miterlimit="10" stroke-width="1.5"/><path fill="none" stroke="#494949" stroke-linecap="round" stroke-linejoin="round" stroke-miterlimit="10" stroke-width="1.5" d="M525.42 416.1a3.61 3.61 0 00-4.23-2.9 3.64 3.64 0 00-2.9 4.24M539.92 413.42a3.61 3.61 0 00-4.23-2.89 3.64 3.64 0 00-2.9 4.24"/></g><g stroke="#494949" stroke-linecap="round" stroke-linejoin="round" stroke-miterlimit="10"><g fill="#FF0083" stroke-width="1.2"><path d="M1577.74 404.46l12.5-25-9.5 28.16z"/><circle cx="1590.078" cy="380.29" r="3.166"/></g><g fill="#FF0083" stroke-width="1.2"><path d="M1522.08 403.46l-12.5-24 8.5 27.16z"/><circle cx="1509.743" cy="380.29" r="3.166"/></g><path fill="none" stroke-width="2.5" d="M1553.24 510.62l10.34 50h20l-7-85h9.33v-56.66a17 17 0 00-17-17h-38.67a17 17 0 00-17 17v56.66h11l-3 84.34h19.34l15.33-61.67"/><path fill="#EBEBEB" stroke-width="1.5" d="M1524.58 465.29h51.66v9.67h-51.66z"/><path fill="none" stroke-width="1.5" d="M1524.58 474.96v-44M1576.24 474.96v-44"/><path fill="none" stroke-width="2.5" d="M1523.58 494.96h-.84a8.5 8.5 0 01-8.5-8.5v-10.84h9.34v19.34zM1585.57 475.62v10.83a8.5 8.5 0 01-7.4 8.43l-1.6-19.26h9z"/><path fill="#EBEBEB" stroke-width="1.5" d="M1572.24 446.62a2.33 2.33 0 01-2.33 2.34h-12.33a2.33 2.33 0 01-2.34-2.34v-21a2.33 2.33 0 012.34-2.33h12.33a2.33 2.33 0 012.33 2.33v21z"/><path fill="#FFF" stroke-width="1.5" d="M1559.91 428.29h7.67v11h-7.67z"/><path fill="#EBEBEB" stroke-width="1.5" d="M1537.91 482.29a2 2 0 01-2 2h-2.33a2 2 0 01-2-2v-21c0-1.1.9-2 2-2h2.33a2 2 0 012 2v21zM1567.24 482.29a2 2 0 01-2 2h-2.33a2 2 0 01-2-2v-21c0-1.1.9-2 2-2h2.33a2 2 0 012 2v21zM1516.74 454.29a2 2 0 01-2 2h-.33a4.83 4.83 0 01-4.83-4.83v-6a4.83 4.83 0 014.83-4.84h.33a2 2 0 012 2v11.67zM1583.4 454.29c0 1.1.9 2 2 2h.34a4.83 4.83 0 004.84-4.83v-6a4.83 4.83 0 00-4.84-4.84h-.33a2 2 0 00-2 2v11.67zM1541 530.66a6.08 6.08 0 01-6.34 5.8l-10.64-.48a4.6 4.6 0 01-4.4-4.8l.6-13.28a4.6 4.6 0 014.8-4.4l5.67.26a11.05 11.05 0 0110.55 11.53l-.24 5.37zM1562.2 530.66a6.08 6.08 0 006.34 5.8l10.64-.48a4.6 4.6 0 004.4-4.8l-.6-13.28a4.6 4.6 0 00-4.8-4.4l-5.67.26a11.05 11.05 0 00-10.55 11.53l.24 5.37z"/><path fill="#FFF" stroke-width="2.5" d="M1541.08 559.96h-21a9.5 9.5 0 00-9.5 9.5v1.16h30.5v-10.66zM1563.74 559.96h21a9.5 9.5 0 019.5 9.5v1.16h-30.5v-10.66z"/><path fill="none" stroke-width="2.5" d="M1575 374.75a21.13 21.13 0 00-21.13-21.13h-8.5a21.13 21.13 0 00-21.13 21.13v28.12c7.75 14.75 44.5 13.25 50.75 0v-28.12z"/><path fill="#FFF" stroke-width="2.5" d="M1565.74 396.79a11 11 0 01-11 11h-8a11 11 0 01-11-11v-17.83a11 11 0 0111-11h8a11 11 0 0111 11v17.83z"/><path fill="#EBEBEB" stroke-width="2.5" d="M1568.24 371.12v7.83c0 2.66-.93 5.1-2.5 7v-4c0-8.86-6.39-11.72-10.15-8.2a6.94 6.94 0 01-9.4.05c-4.08-3.73-10.45-.18-10.45 8.15v2.84a10.94 10.94 0 01-1.67-5.84v-7.83c0-6.08 4.91-12 10.95-12h12.27c6.05 0 10.95 5.92 10.95 12z"/><path fill="none" stroke-width="1.5" d="M1549.16 389.2a3.58 3.58 0 10-7.17 0M1561.66 389.2a3.58 3.58 0 10-7.17 0M1547.33 398.79s8.41 3.33 13.58-2.58"/></g><g stroke="#494949" stroke-linecap="round" stroke-linejoin="round" stroke-miterlimit="10"><path fill="#EBEBEB" stroke-width="2.5" d="M1747.64 460.37a11 11 0 01-11 11h-1.75a11 11 0 01-11-11v-49.75a11 11 0 0111-11h1.75a11 11 0 0111 11v49.75z"/><path fill="#EBEBEB" stroke-width="2.5" d="M1746.89 480.87h-22.25l3-14.25h16.25z"/><path fill="#FFF" stroke-width="2.5" d="M1702.47 401.96h12.75c8.7 0 15.75 7.05 15.75 15.75v29.15c0 1.92-.49 3.81-1.41 5.5l-1.25 2.26V474c0 .41-.09.82-.24 1.2l-.6 1.42v84.34h-45.67v-85.67h-11.66V417.7c0-8.7 7.05-15.75 15.75-15.75h16.58z"/><path fill="none" stroke-width="2.5" d="M1681.8 494.79h-1.5a8 8 0 01-8-8v-11.5h9.5v19.5z"/><path fill="none" stroke-width="1.5" d="M1679.64 424.96v49.82h48.66M1702.14 487.62v73.34"/><path fill="#FF0083" stroke-width="1.2" d="M1698.27 453.03a2 2 0 01-1.85 2.13l-9.59.67a2 2 0 01-2.13-1.86l-1.47-21.2a2 2 0 011.86-2.13l9.58-.67a2 2 0 012.14 1.86l1.46 21.2z"/><path fill="none" stroke-width="1.5" d="M1715.51 430.75v10.75a4.62 4.62 0 01-4.62 4.62h-7.75v12.13h19c3.12 0 6.16-3.28 6.16-5"/><path fill="#FFF" stroke-width="1.5" d="M1703.14 448.12l-9.39-4.96a3.6 3.6 0 00-5.13 2.14l-1.62 5.38a3.6 3.6 0 002.98 4.61l13.16 1.7"/><path fill="none" stroke-width="2.5" d="M1724.52 401.12v.12h-.01c0-.04 0-.08 0-.12z"/><path fill="none" stroke-width="2.5" d="M1724.52 372.74v28.38c0 .04 0 .08-.01.12-.12 6.98-11.7 12.63-25.93 12.63-14.25 0-25.81-5.65-25.93-12.63h-.01v-28.5a20 20 0 0120-20h11.88a20 20 0 0120 20z"/><path fill="#FFF" stroke-width="2.5" d="M1714.58 396.79a11 11 0 01-11 11h-8a11 11 0 01-11-11v-17.83a11 11 0 0111-11h8a11 11 0 0111 11v17.83z"/><path fill="#FFF" stroke-width="2.5" d="M1683.23 362.79c-2.1 4.17-1.46 17.08 1.35 22.83 0-13.4 5.01-10.32 9.3-10.75 3-.3 8.76-3.91 13.34-1.25s5.42 13.17 7.36 13.17c3.73 0 4.4-33.38-19.44-24.33-4.23 1.6-7.17 4.08-11.91.33z"/><path fill="#FFF" stroke-width="1.5" d="M1692.56 397.3c4.08 2.5 7.16 2.66 11.41 0M1695.56 389.37a3.67 3.67 0 00-7.34 0M1707.64 389.37a3.67 3.67 0 00-7.34 0"/><path fill="#FFF" stroke-width="2.5" d="M1702.14 560.96h-23.25a6.58 6.58 0 00-6.59 6.58v3.08h29.84v-9.66z"/><path fill="#FFF" stroke-width="2.5" d="M1727.8 560.96h-23.24a6.58 6.58 0 00-6.59 6.58v3.08h29.83v-9.66z"/></g><g><path fill="#FF0083" d="M250.34 132.58l-.37-.59c-.28-.45-.18-1.09.28-1.37l1.77-1.1a20.04 20.04 0 01-2.04-3.09l-1.69 1.05c-.45.28-1.07.1-1.35-.35l-.37-.6c-.28-.45-.17-1.09.28-1.37l1.95-1.22a19.32 19.32 0 017.92-23.17 18.13 18.13 0 0113.64-2.62 1 1 0 01.84 1.25l-.98 4.51c-.09.57-.63.9-1.22.77-2.99-.54-6.06.1-8.6 1.7-4.73 2.94-6.48 8.45-5.05 13.48l10.6-6.6c.5-.3 1.12-.12 1.4.33l.43.68c.28.46.14 1.05-.36 1.36l-11.05 6.88c.17.27.31.5.48.77.48.78 1.01 1.52 1.67 2.18l9-5.6c.5-.32 1.13-.13 1.41.32l.4.64c.28.45.14 1.04-.36 1.35l-8.18 5.1a11.76 11.76 0 0012.79.18c2.73-1.7 4.4-4.2 5.34-6.93a.99.99 0 011.14-.7l4.63 1.15c.57.1.84.74.72 1.25a18.38 18.38 0 01-8.3 11.3 19.26 19.26 0 01-23.15-2l-2.27 1.42c-.45.28-1.07.1-1.35-.36z"/></g><g><path fill="#FF0083" d="M446.18 240.33c1-1.67 2.27-4.84 3.78-3.72.21.16 3.45 2.5 6.67 3.27-.03-3.48 0-6.8-.03-10.28-5-1.95-10.7-4.75-10.74-11.82-.04-5.09 3.3-9.62 10.64-10.26l-.01-1.71c0-.59.47-1.02 1-1.03h.7c.54 0 1.03.42 1.03 1l.01 1.78a19.2 19.2 0 019.35 3.41c.54.32.7 1.18.33 1.77-1.06 1.61-2.59 4.57-3.83 3.72-.38-.16-3.18-2.06-5.8-2.85.02 3.21.04 6.43.06 9.64 4.68 1.9 11.08 5.07 11.13 12.08.04 5.84-3.9 10.16-11.07 10.64l.04 5.57c0 .59-.47.97-1.06.97-.65 0-1.66-.04-1.67-.95l-.04-5.57c-5.79-.39-9.24-3.15-10.2-4.05-.5-.48-.82-.8-.29-1.6zm10.2-26.86c-2.68.34-4 1.9-4 3.51.02 2.15 1.32 3.7 4.06 5.12l-.06-8.63zm7.07 22.67c-.01-2.1-1.36-3.8-4.05-5.33l.07 9.37c2.3-.39 4-1.95 3.98-4.04z"/></g><g><path fill="#FF0083" d="M635.05 219.21l-.36-.6c-.28-.45-.17-1.08.28-1.37l5.07-3.12-1.94-3.14-5.07 3.12c-.45.28-1.07.1-1.35-.36l-.37-.6c-.28-.45-.17-1.08.3-1.37l5.05-3.12-1.3-2.1-19.78-8.81c-.73-.37-.82-1.33-.09-1.78l4.7-2.9c.32-.19.73-.13.98-.03l13.77 5.99.82-15c.03-.26.07-.6.48-.85l4.65-2.87c.73-.45 1.54.06 1.55.87l-1.17 21.68 1.32 2.15 4.97-3.07c.5-.3 1.12-.12 1.4.34l.4.63c.28.46.14 1.05-.37 1.36l-4.97 3.06 1.94 3.15 4.97-3.07c.5-.3 1.12-.12 1.4.34l.4.63c.28.46.14 1.05-.36 1.36l-4.97 3.06 2.84 4.6c.28.47.12 1.13-.33 1.41l-4.2 2.59c-.5.3-1.12.12-1.4-.34l-2.84-4.6-5.06 3.12c-.46.28-1.07.1-1.36-.36z"/></g><path fill="#FF0083" d="M1272.34 209.04c-1.21-4.78-5.92-6.57-8.9-6.76 2.15-1.76 4.64-5.7 3.63-9.7-1.34-5.29-6.85-8.22-12.8-6.97l-1.06-4.2c-.13-.48-.64-.72-1.15-.59l-.68.18c-.52.13-.9.6-.77 1.07l1.05 4.18-2.64.67-1-4c-.13-.48-.64-.72-1.15-.59l-.68.18c-.52.13-.9.6-.78 1.07l1.01 4-4.64 1.17a1 1 0 00-.73 1.24l8.7 34.38c.14.52.66.88 1.24.74l4.64-1.17 1 3.99c.11.43.67.65 1.19.52l.62-.16c.52-.13.9-.6.8-1.03l-1.01-3.98 2.64-.67.96 3.8c.1.44.66.66 1.18.53l.62-.16c.53-.13.9-.6.8-1.03l-.96-3.8.09-.02c6.33-1.6 10.25-7.07 8.78-12.9zm-20.98-6.47l-2.3-9.08c5.37-1.37 5.9-1.57 6.8-1.57 4.76-.08 6.15 6.6 2.23 8.79-.85.46-1.12.43-6.73 1.86zm10.08 13.37c-4.84 1.23-2.68.67-6.29 1.59l-2.34-9.24c5.4-1.37 5.93-1.57 6.8-1.6a4.72 4.72 0 011.83 9.25z"/><g><path fill="#FF0083" d="M1686.32 178.7c.93 0 1.69-.75 1.69-1.68s-.76-1.69-1.69-1.69h-4.8v-2.35h4.8a1.7 1.7 0 001.69-1.69 1.7 1.7 0 00-1.69-1.68h-4.8v-4.13a1.7 1.7 0 00-1.69-1.7h-4.2v-4.86a1.7 1.7 0 00-3.38 0v4.88h-2.36v-4.88a1.7 1.7 0 10-3.38 0v4.88h-2.33v-4.88a1.7 1.7 0 00-3.38 0v4.88h-3.96a1.7 1.7 0 00-1.69 1.7v4.12h-5.04a1.7 1.7 0 000 3.38h5.06v2.36h-5.06a1.7 1.7 0 000 3.37h5.06v2.25h-5.06a1.7 1.7 0 000 3.37h5.06v4.13c0 .93.76 1.69 1.69 1.69h3.96v4.97a1.7 1.7 0 003.38 0v-4.97h2.35v4.97a1.7 1.7 0 003.38 0v-4.97h2.32v4.97c0 .93.76 1.69 1.7 1.69.83 0 1.6-.76 1.68-1.7v-4.96h4.21c.93 0 1.69-.67 1.69-1.69v-4.13h4.8a1.7 1.7 0 000-3.38h-4.8v-2.26h4.8zm-10.96 5.38h-14.12v-14.12h14.12v14.12zm2.8 2.8"/></g></svg>