<svg xmlns="http://www.w3.org/2000/svg" id="work" viewBox="0 0 1422 870"><defs><style>.cls-1,.cls-3{fill:#ebebeb}.cls-1,.cls-4{stroke:#4a4a4a}.Graphic-Style-56,.cls-1,.cls-4{stroke-linecap:round;stroke-linejoin:round;stroke-width:2.5px}.cls-2{fill:#fff}.Graphic-Style-56,.cls-4{fill:none}.Graphic-Style-56{stroke:#ff0083}.cls-5{fill:#ff0083}</style></defs><rect width="163.59" height="243.08" x="181.91" y="453.1" class="cls-1" rx="7.93" ry="7.93"/><path d="M340.9 495.45l-2.86 2.51h.77v45.9l-.57.59.57-.31v42.98l.23 60.22 1.86 2.1v40.9H185.66V457.06H340.9v38.39z" class="cls-2"/><path d="M338.81 507.56l-8.48 7.51v38.87l8.79-8.8v10.24l-8.79 7.63v34.05l8.13-8.22.35 7.46-8.9 9.94v35.51l-6.4-3.99.42-126.79 14.88-15.04v11.63z" class="cls-3"/><path d="M340.9 690.34H185.66V457.06H340.9v38.39l-16.69 14.61v127.7l16.69 11.68v40.9z" class="cls-4"/><path d="M338.81 497.96v45.9l-14.39 14.82M338.81 544.14v42.98l-14.39 14.82M338.82 587.12v60.86" class="cls-4"/><path d="M200.41 474.17a6 6 0 10-6 6 6 6 0 006-6zM200.41 495.93a6 6 0 10-6 6 6 6 0 006-6zM200.41 517.79a6 6 0 10-6 6 6 6 0 006-6zM200.41 539.59a6 6 0 10-6 6 6 6 0 006-6zM200.41 561.36a6 6 0 10-6 6 6 6 0 006-6zM200.41 583.21a6 6 0 10-6 6 6 6 0 006-6zM200.41 604.93a6 6 0 10-6 6 6 6 0 006-6zM200.41 626.69a6 6 0 10-6 6 6 6 0 006-6zM200.41 648.54a6 6 0 10-6 6 6 6 0 006-6zM200.41 670.35a6 6 0 10-6 6 6 6 0 006-6z" class="cls-1"/><path d="M178.43 472.5h17.25M178.43 476.12h17.25M178.43 494.23h17.25M178.43 497.85h17.25M178.43 515.96h17.25M178.43 519.58h17.25M178.43 537.7h17.25M178.43 541.31h17.25M178.43 559.42h17.25M178.43 563.04h17.25M178.43 581.16h17.25M178.43 584.77h17.25M178.43 602.89h17.25M178.43 606.5h17.25M178.43 624.62h17.25M178.43 628.24h17.25M178.43 646.35h17.25M178.43 649.96h17.25M178.43 668.08h17.25M178.43 671.7h17.25" class="cls-4"/><g><rect width="163.58" height="243.08" x="319.34" y="88.01" class="cls-1" rx="7.93" ry="7.93"/><path d="M478.33 130.37l-2.86 2.5h.78v45.9l-.58.6.58-.32v42.98l.22 60.22 1.86 2.1v40.9H323.1V91.97h155.23v38.4z" class="cls-2"/><path d="M476.25 142.47l-8.49 7.51v38.87l8.8-8.79v10.23l-8.8 7.63v34.05l8.14-8.21.35 7.46-8.9 9.93v35.51l-6.4-3.99.42-126.79 14.88-15.04v11.63z" class="cls-3"/><path d="M478.33 325.25H323.1V91.97h155.23v38.4l-16.69 14.6v127.7l16.69 11.68v40.9z" class="cls-4"/><path d="M476.25 132.87v45.9l-14.4 14.82M476.25 179.05v42.98l-14.4 14.82M476.25 222.04v60.85" class="cls-4"/><path d="M337.84 109.08a6 6 0 10-6 6 6 6 0 006-6zM337.84 130.84a6 6 0 10-6 6 6 6 0 006-6zM337.84 152.7a6 6 0 10-6 6 6 6 0 006-6zM337.84 174.51a6 6 0 10-6 6 6 6 0 006-6zM337.84 196.27a6 6 0 10-6 6 6 6 0 006-6zM337.84 218.13a6 6 0 10-6 6 6 6 0 006-6zM337.84 239.84a6 6 0 10-6 6 6 6 0 006-6zM337.84 261.6a6 6 0 10-6 6 6 6 0 006-6zM337.84 283.46a6 6 0 10-6 6 6 6 0 006-6zM337.84 305.26a6 6 0 10-6 6 6 6 0 006-6z" class="cls-1"/><path d="M315.86 107.41h17.25M315.86 111.03h17.25M315.86 129.14h17.25M315.86 132.76h17.25M315.86 150.88h17.25M315.86 154.49h17.25M315.86 172.61h17.25M315.86 176.22h17.25M315.86 194.34h17.25M315.86 197.95h17.25M315.86 216.07h17.25M315.86 219.68h17.25M315.86 237.8h17.25M315.86 241.42h17.25M315.86 259.53h17.25M315.86 263.15h17.25M315.86 281.26h17.25M315.86 284.88h17.25M315.86 302.99h17.25M315.86 306.61h17.25" class="cls-4"/></g><g><rect width="163.59" height="243.08" x="903.98" y="96.58" class="cls-1" rx="7.93" ry="7.93"/><path d="M1062.97 138.94l-2.86 2.5h.78v45.91l-.58.59.58-.31v42.98l.22 60.21 1.86 2.11v40.89H907.74V100.55h155.23v38.39z" class="cls-2"/><path d="M1060.89 151.04l-8.49 7.52v38.87l8.8-8.8v10.23l-8.8 7.64v34.05l8.14-8.22.35 7.46-8.9 9.94v35.51l-6.4-4 .41-126.78 14.89-15.04v11.62z" class="cls-3"/><path d="M1062.97 333.82H907.74V100.55h155.23v38.39l-16.69 14.61v127.69l16.69 11.69v40.89z" class="cls-4"/><path d="M1060.89 141.44v45.91l-14.4 14.81M1060.89 187.63v42.98l-14.4 14.81M1060.89 230.61v60.86" class="cls-4"/><path d="M922.48 117.66a6 6 0 10-6 6 6 6 0 006-6zM922.48 139.42a6 6 0 10-6 6 6 6 0 006-6z" class="cls-1"/><circle cx="916.5" cy="161.27" r="5.98" class="cls-1"/><path d="M922.48 183.08a6 6 0 10-6 6 6 6 0 006-6zM922.48 204.84a6 6 0 10-6 6 6 6 0 006-6z" class="cls-1"/><circle cx="916.5" cy="226.7" r="5.98" class="cls-1"/><path d="M922.48 248.42a6 6 0 10-6 6 6 6 0 006-6zM922.48 270.18a6 6 0 10-6 6 6 6 0 006-6zM922.48 292a6 6 0 10-6 6 6 6 0 006-6zM922.48 313.84a6 6 0 10-6 6 6 6 0 006-6z" class="cls-1"/><path d="M900.5 115.99h17.25M900.5 119.6h17.25M900.5 137.72h17.25M900.5 141.33h17.25M900.5 159.45h17.25M900.5 163.07h17.25M900.5 181.18h17.25M900.5 184.8h17.25M900.5 202.91h17.25M900.5 206.53h17.25M900.5 224.64h17.25M900.5 228.26h17.25M900.5 246.38h17.25M900.5 249.99h17.25M900.5 268.1h17.25M900.5 271.72h17.25M900.5 289.84h17.25M900.5 293.45h17.25M900.5 311.57h17.25M900.5 315.18h17.25" class="cls-4"/></g><g><rect width="163.58" height="243.08" x="1044.99" y="465.7" class="cls-1" rx="7.93" ry="7.93"/><path d="M1203.98 508.06l-2.86 2.5h.78v45.9l-.58.6.58-.32v42.99l.22 60.21 1.86 2.1v40.9h-155.24V469.67h155.24v38.39z" class="cls-2"/><path d="M1201.9 520.16l-8.49 7.51v38.87l8.8-8.79v10.23l-8.8 7.63v34.05l8.14-8.21.35 7.46-8.9 9.94v35.5l-6.4-3.99.42-126.78 14.88-15.04v11.62z" class="cls-3"/><path d="M1203.98 702.94h-155.24V469.67h155.24v38.39l-16.69 14.6v127.7l16.69 11.69v40.89z" class="cls-4"/><path d="M1201.9 510.56v45.9l-14.4 14.82M1201.9 556.74v42.99l-14.4 14.81M1201.9 599.73v60.85" class="cls-4"/><path d="M1063.49 486.77a6 6 0 10-6 6 6 6 0 006-6zM1063.49 508.54a6 6 0 10-6 6 6 6 0 006-6zM1063.49 530.39a6 6 0 10-6 6 6 6 0 006-6zM1063.49 552.2a6 6 0 10-6 6 6 6 0 006-6zM1063.49 574a6 6 0 10-6 6 6 6 0 006-6zM1063.49 595.82a6 6 0 10-6 6 6 6 0 006-6zM1063.49 617.53a6 6 0 10-6 6 6 6 0 006-6zM1063.49 639.29a6 6 0 10-6 6 6 6 0 006-6zM1063.49 661.15a6 6 0 10-6 6 6 6 0 006-6zM1063.49 683a6 6 0 10-6 6 6 6 0 006-6z" class="cls-1"/><path d="M1041.51 485.1h17.25M1041.51 488.72h17.25M1041.51 506.84h17.25M1041.51 510.45h17.25M1041.51 528.57h17.25M1041.51 532.18h17.25M1041.51 550.3h17.25M1041.51 553.92h17.25M1041.51 572.03h17.25M1041.51 575.64h17.25M1041.51 593.76h17.25M1041.51 597.38h17.25M1041.51 615.49h17.25M1041.51 619.11h17.25M1041.51 637.22h17.25M1041.51 640.84h17.25M1041.51 658.95h17.25M1041.51 662.57h17.25M1041.51 680.69h17.25M1041.51 684.3h17.25" class="cls-4"/></g><g><rect width="163.59" height="243.08" x="766.85" y="587.06" class="cls-1" rx="7.93" ry="7.93"/><path d="M925.85 629.42l-2.87 2.5h.78v45.91l-.58.59.58-.32v42.99l.22 60.21 1.87 2.1v40.9H770.61V591.02h155.24v38.4z" class="cls-2"/><path d="M923.76 641.52l-8.49 7.51v38.87l8.8-8.79v10.23l-8.8 7.63v34.05l8.14-8.22.35 7.47-8.9 9.94v35.5l-6.4-3.99.42-126.79 14.88-15.03v11.62z" class="cls-3"/><path d="M925.85 824.3H770.61V591.02h155.24v38.4l-16.7 14.6v127.7l16.7 11.68v40.9z" class="cls-4"/><path d="M923.76 631.92v45.91l-14.4 14.81M923.76 678.1v42.99l-14.4 14.81M923.76 721.09v60.86" class="cls-4"/><path d="M785.35 608.13a6 6 0 10-6 6 6 6 0 006-6zM785.35 629.9a6 6 0 10-6 6 6 6 0 006-6zM785.35 651.75a6 6 0 10-6 6 6 6 0 006-6zM785.35 673.56a6 6 0 10-6 6 6 6 0 006-6zM785.35 695.32a6 6 0 10-6 6 6 6 0 006-6zM785.35 717.18a6 6 0 10-6 6 6 6 0 006-6zM785.35 738.89a6 6 0 10-6 6 6 6 0 006-6zM785.35 760.65a6 6 0 10-6 6 6 6 0 006-6zM785.35 782.51a6 6 0 10-6 6 6 6 0 006-6zM785.35 804.32a6 6 0 10-6 6 6 6 0 006-6z" class="cls-1"/><path d="M763.37 606.46h17.25M763.37 610.08h17.25M763.37 628.19h17.25M763.37 631.81h17.25M763.37 649.93h17.25M763.37 653.54h17.25M763.37 671.66h17.25M763.37 675.27h17.25M763.37 693.39h17.25M763.37 697h17.25M763.37 715.12h17.25M763.37 718.74h17.25M763.37 736.85h17.25M763.37 740.47h17.25M763.37 758.58h17.25M763.37 762.2h17.25M763.37 780.31h17.25M763.37 783.93h17.25M763.37 802.04h17.25M763.37 805.66h17.25" class="cls-4"/></g><g><rect width="163.58" height="243.08" x="459.87" y="575.65" class="cls-1" rx="7.93" ry="7.93"/><path d="M618.87 618.01l-2.86 2.51h.77v45.9l-.57.59.57-.31v42.98l.22 60.21 1.87 2.11v40.9H463.63V579.62h155.24v38.39z" class="cls-2"/><path d="M616.78 630.11l-8.48 7.52v38.87l8.79-8.8v10.23l-8.79 7.64v34.05l8.13-8.22.35 7.46-8.9 9.94v35.51l-6.4-4 .42-126.78 14.88-15.04v11.62z" class="cls-3"/><path d="M618.87 812.9H463.63V579.62h155.24v38.39l-16.7 14.61v127.69l16.7 11.69v40.9z" class="cls-4"/><path d="M616.78 620.52v45.9l-14.4 14.81M616.78 666.7v42.98l-14.4 14.82M616.78 709.68v60.86" class="cls-4"/><path d="M478.38 596.73a6 6 0 10-6 6 6 6 0 006-6zM478.38 618.49a6 6 0 10-6 6 6 6 0 006-6zM478.38 640.34a6 6 0 10-6 6 6 6 0 006-6zM478.38 662.15a6 6 0 10-6 6 6 6 0 006-6zM478.38 683.92a6 6 0 10-6 6 6 6 0 006-6zM478.38 705.77a6 6 0 10-6 6 6 6 0 006-6zM478.38 727.49a6 6 0 10-6 6 6 6 0 006-6zM478.38 749.25a6 6 0 10-6 6 6 6 0 006-6zM478.38 771.1a6 6 0 10-6 6 6 6 0 006-6zM478.38 792.91a6 6 0 10-6 6 6 6 0 006-6z" class="cls-1"/><path d="M456.4 595.06h17.24M456.4 598.67h17.24M456.4 616.79h17.24M456.4 620.41h17.24M456.4 638.52h17.24M456.4 642.14h17.24M456.4 660.25h17.24M456.4 663.87h17.24M456.4 681.98h17.24M456.4 685.6h17.24M456.4 703.72h17.24M456.4 707.33h17.24M456.4 725.44h17.24M456.4 729.06h17.24M456.4 747.18h17.24M456.4 750.79h17.24M456.4 768.91h17.24M456.4 772.52h17.24M456.4 790.64h17.24M456.4 794.26h17.24" class="cls-4"/></g><g><rect width="163.59" height="243.08" x="614.6" y="30.94" class="cls-1" rx="7.93" ry="7.93"/><path d="M773.59 73.29l-2.86 2.51h.78v45.9l-.58.59.58-.31v42.98l.22 60.21 1.86 2.11v40.9H618.35V34.9h155.24v38.39z" class="cls-2"/><path d="M771.51 85.39l-8.49 7.52v38.87l8.8-8.8v10.24l-8.8 7.63v34.05l8.13-8.22.36 7.46-8.91 9.94v35.51l-6.39-3.99.41-126.79 14.89-15.04v11.62z" class="cls-3"/><path d="M773.59 268.18H618.35V34.9h155.24v38.39L756.9 87.9v127.7l16.69 11.68v40.9z" class="cls-4"/><path d="M771.51 75.8v45.9l-14.4 14.81M771.51 121.98v42.98l-14.4 14.82M771.51 164.96v60.86" class="cls-4"/><path d="M633.1 52a6 6 0 10-6 6 6 6 0 006-6zM633.1 73.77a6 6 0 10-6 6 6 6 0 006-6zM633.1 95.63a6 6 0 10-6 6 6 6 0 006-6zM633.1 117.44a6 6 0 10-6 6 6 6 0 006-6zM633.1 139.2a6 6 0 10-6 6 6 6 0 006-6zM633.1 161.05a6 6 0 10-6 6 6 6 0 006-6zM633.1 182.77a6 6 0 10-6 6 6 6 0 006-6zM633.1 204.53a6 6 0 10-6 6 6 6 0 006-6zM633.1 226.39a6 6 0 10-6 6 6 6 0 006-6zM633.1 248.19a6 6 0 10-6 6 6 6 0 006-6z" class="cls-1"/><path d="M611.12 50.34h17.25M611.12 53.96h17.25M611.12 72.07h17.25M611.12 75.69h17.25M611.12 93.8h17.25M611.12 97.42h17.25M611.12 115.53h17.25M611.12 119.15h17.25M611.12 137.26h17.25M611.12 140.88h17.25M611.12 159h17.25M611.12 162.61h17.25M611.12 180.73h17.25M611.12 184.34h17.25M611.12 202.46h17.25M611.12 206.07h17.25M611.12 224.19h17.25M611.12 227.8h17.25M611.12 245.92h17.25M611.12 249.54h17.25" class="cls-4"/></g><g><path d="M505.77 240.56H550l10.03 10.03h37.26M511.35 255.17h16.79M511.35 294.85h48.35l29.34 29.34" class="Graphic-Style-56"/><path d="M505.77 306.81h45.76l29.52 29.52h256.61l19.48-19.47h21.48M798.05 230.54h80.57M792.68 218.44h37.6l12.68-12.68h41.7M846.91 218.8h29.02M637.78 294.85v25.93M631.8 345.6l-19.6 19.61M589.04 387.23l-66.21 66.2M482.18 490.22l-47.17 47.17v12.27h-23.99l-28.07 28.07h-11.92M585.88 359.03l35.55 35.55h22.86l173.53 173.53M692.19 298.64v24M692.19 345.6v83.86" class="Graphic-Style-56"/><path d="M692.19 453.43v10.14l106.86 106.86M708.75 299.24v139.02l90.85 90.85h135.42l29.72 29.71h58.91M652.35 558.83l55.32-55.32" class="Graphic-Style-56"/><path d="M751.72 459.07l26.15-26.14 98.06.01 52.6-52.6v-21.31M944.42 359.03v32.23l-55.51 55.51v67.17M888.91 538.39v27.06M960.53 359.03v70.43l21.19 21.18M975.01 359.03v61.3l26.91 26.9v22.94l18.68 18.69M652.35 294.85v53.62l-27.3 27.31M602.67 401.33L521.3 482.7M450.93 355.4v73.63l44.69 44.69v26.3l18.8 18.8v33.1M430.78 355.4v69.43l-22.02 22.02M411.02 352.99v58.41l-22.87 22.88v40.24l-27.82 27.81M944.42 651.43h76.18M939.05 668.9h43.46l17.1 17.1h29.41M742.99 670.34h-50.8l-21.14 21.14h-26.76M644.29 659.04h25.52M693.64 687.81h49.35M353.57 662.96h40.29l8.3 8.31h43.06M356.59 648.86h88.63M364.65 676.05h22.66" class="Graphic-Style-56"/></g><path d="M526.68 716.76a6.23 6.23 0 01-4.28-1.7l-22.7-21.39a6.25 6.25 0 018.57-9.09l18.32 17.26 48-47.2a6.24 6.24 0 018.76 8.9L531.06 715a6.21 6.21 0 01-4.38 1.76zM832.86 737.45a6.19 6.19 0 01-4.28-1.7l-22.69-21.39a6.25 6.25 0 018.57-9.09l18.31 17.26 48-47.2a6.25 6.25 0 018.77 8.91l-52.26 51.42a6.22 6.22 0 01-4.42 1.79zM1112.19 617.88a6.19 6.19 0 01-4.28-1.7l-22.69-21.39a6.25 6.25 0 018.57-9.09l18.31 17.3 48-47.2a6.24 6.24 0 018.76 8.9l-52.26 51.42a6.22 6.22 0 01-4.41 1.76zM971.37 249.58a6.23 6.23 0 01-4.28-1.7l-22.69-21.39a6.25 6.25 0 018.6-9.09l18.31 17.26 48-47.2a6.24 6.24 0 018.76 8.9l-52.26 51.43a6.22 6.22 0 01-4.44 1.79zM680.61 183.44a6.19 6.19 0 01-4.28-1.7l-22.7-21.39a6.25 6.25 0 018.57-9.09l18.32 17.27 48-47.2a6.24 6.24 0 118.76 8.9L685 181.65a6.24 6.24 0 01-4.39 1.79zM385.35 236.61a6.19 6.19 0 01-4.28-1.7l-22.69-21.39a6.25 6.25 0 018.57-9.09l18.31 17.27 48-47.2a6.25 6.25 0 118.77 8.9l-52.26 51.42a6.22 6.22 0 01-4.42 1.79zM252.6 596.17a6.23 6.23 0 01-4.28-1.7l-22.7-21.39a6.25 6.25 0 018.57-9.09l18.32 17.26 48-47.2a6.24 6.24 0 018.76 8.9L257 594.38a6.24 6.24 0 01-4.4 1.79z" class="cls-5"/></svg>