<svg height="365" viewBox="0 0 872 365" width="872" xmlns="http://www.w3.org/2000/svg" xmlns:xlink="http://www.w3.org/1999/xlink"><linearGradient id="a"><stop offset="0" stop-color="#e5e5e5"/><stop offset="1" stop-color="#e5e5e5" stop-opacity="0"/></linearGradient><linearGradient id="b" x1="78.024%" xlink:href="#a" y1="76.355%" y2="100%"/><linearGradient id="c" x1="63.818%" x2="77.747%" xlink:href="#a" y1="61.438%" y2="77.758%"/><linearGradient id="d" x1="59.831%" x2="19.417%" xlink:href="#a" y1="39.255%" y2="77.75%"/><linearGradient id="e" x1="50%" x2="107.182%" xlink:href="#a" y1="50%" y2="100%"/><linearGradient id="f" x1="50%" x2="134.226%" xlink:href="#a" y1="50%" y2="127.047%"/><linearGradient id="g" x1="50%" x2="0%" xlink:href="#a" y1="50%" y2="93.829%"/><linearGradient id="h" x1="59.29%" x2="0%" xlink:href="#a" y1="55.498%" y2="0%"/><linearGradient id="i" x1="50%" x2="24.264%" xlink:href="#a" y1="50%" y2="21.008%"/><linearGradient id="j" x1="50%" x2="0%" xlink:href="#a" y1="50%" y2="0%"/><linearGradient id="k" x1="73.706%" xlink:href="#a" y1="24.512%" y2="0%"/><linearGradient id="l" x1="70.914%" xlink:href="#a" y1="26.744%" y2="0%"/><linearGradient id="m" x1="64.769%" xlink:href="#a" y1="60.843%" y2="94.155%"/><linearGradient id="n" x1="68.973%" x2="0%" xlink:href="#a" y1="64.994%" y2="0%"/><g fill="none" fill-rule="nonzero"><path d="m356.23 295.516.206 1.205-143.077 24.45-.207-1.205z" fill="#e5e5e5"/><path d="m129.473 259.857-.965.752-60.584-77.628.965-.751z" fill="#e5e5e5"/><path d="m686.722 248.988.747.969-92.406 71.095-.746-.968z" fill="#e5e5e5"/><path d="m514.32 70.64-.206-1.205 143.077-24.449.207 1.205z" fill="#e5e5e5"/><path d="m741.077 106.299.965-.752 60.584 77.628-.965.752z" fill="#e5e5e5"/><path d="m183.828 117.168-.747-.969 92.406-71.095.747.969z" fill="#e5e5e5"/><path d="m434.966 183.286 1.23-1.361 152.99 137.963-1.231 1.361z" fill="#e5e5e5"/><path d="m435.581 181.689v1.833h-367.174v-1.833z" fill="#e5e5e5"/><path d="m435.581 183.522v-1.833h367.786v1.833z" fill="#e5e5e5"/><path d="m435.584 182.87-1.23 1.361-152.989-137.962 1.23-1.361z" fill="#e5e5e5"/><path d="m435.454 184.329-.969-1.557 222.325-137.963.969 1.558z" fill="#e5e5e5"/><path d="m435.097 181.827.968 1.557-222.325 137.963-.969-1.558z" fill="#e5e5e5"/><path d="m762.414 341.787.236-.194.237-.193.236-.195-75.554-92.12-.237.194-.237.194-.236.194-.236.193 75.554 92.122z" fill="url(#b)"/><path d="m835.585 316.623.121-.28.12-.281.121-.281-148.61-66.87-.121.281-.121.281-.12.28-.121.282 148.61 66.869z" fill="url(#c)"/><path d="m1.19 301.529.093.292.094.291.093.291 127.707-41.588-.093-.291-.093-.291-.094-.291-.093-.291-127.707 41.588z" fill="url(#d)"/><path d="m478.428116 364.393379c.098525-.178484.148094-.267114.148094-.267114l.148093-.267726.148094-.267115s.049568-.089242.148705-.267726c-40.796736-22.580057-81.594085-45.159503-122.391434-67.740171-.099137.178484-.148705.267726-.148705.267726l-.148094.267115-.148094.267726s-.049568.08863-.148705.266503c40.797349 22.580668 81.594697 45.160725 122.392046 67.740782" fill="url(#e)"/><path d="m392.205187 364.147658c.179303-.095965.269261-.144254.269261-.144254l.269873-.144865.269261-.144254s.089958-.048289.269873-.144255c-12.136947-22.580668-24.273893-45.160725-36.411452-67.740782-.179303.096577-.269261.144254-.269261.144254l-.269873.144866-.269261.144865s-.089958.048289-.269873.144254c12.136946 22.580057 24.273893 45.160726 36.411452 67.740171" fill="url(#f)"/><path d="m37.2877743 363.455116c.1536013.134474.2300959.201711.2300959.201711l.229484.201712.2300959.202322s.0764946.067237.2294839.201712c30.4142714-34.542151 60.8285427-69.083691 91.243426-103.625842-.153601-.134474-.230096-.201712-.230096-.201712l-.229484-.201711-.230096-.202323s-.076494-.066625-.229484-.201711z" fill="url(#g)"/><path d="m89.6884429.42420507c-.1584969.12836177-.2374394.1931539-.2374394.1931539l-.2374393.19254264-.2374394.1931539s-.0795545.06356964-.2380514.19254265c31.4142096 38.62466644 62.8278066 77.24872164 94.2414046 115.87338784.158497-.128973.238051-.192542.238051-.192542l.237439-.192543.23744-.193154s.078942-.06357.237439-.192543c-31.413597-38.6246661-62.827807-77.2487213-94.2414041-115.87399893" fill="url(#h)"/><path d="m.973 41.042-.121.28-.122.281-.12.281 182.603 75.361.121-.281.121-.28.121-.281.121-.281-182.603-75.361z" fill="url(#i)"/><path d="m126.188628.53728568c-.182363.09046448-.274156.13691921-.274156.13691921l-.273545.13569672-.274157.13630797s-.091182.04523225-.273545.13630797c19.271143 38.62466645 38.542287 77.24872165 57.814042 115.87399945.182363-.091076.273545-.136919.273545-.136919l.274156-.135697.273545-.136308s.091182-.045232.274157-.136919c-19.271755-38.6240555-38.542898-77.2487219-57.814042-115.87338832" fill="url(#j)"/><path d="m871.484 64.492-.092-.291-.094-.291-.092-.291-.094-.292-129.739 42.013.093.291.093.292.093.291.093.291z" fill="url(#k)"/><path d="m813.406 23.66-.23-.201-.23-.202-.229-.201-71.618 82.463.23.202.23.202.23.202.23.201 71.618-82.464z" fill="url(#l)"/><path d="m731.365 340.903.273-.137.274-.138.273-.137.273-.138-44.816-91.155-.273.137-.274.138-.273.137-.273.137z" fill="url(#m)"/><path d="m392.122572 1.76283491c-.099137.17848398-.148705.26711472-.148705.26711472l-.148094.26772597-.148094.26711472s-.049568.08924199-.148705.26772597c40.797349 22.57944581 81.594697 45.16011401 122.392046 67.74017101.098525-.178484.148094-.2671147.148094-.2671147l.148093-.267726.148094-.2671147s.049568-.089242.148705-.2671147c-40.796736-22.580057-81.594085-45.1607253-122.391434-67.74078229" fill="url(#j)"/><path d="m478.345502 2.008556c-.179916.0959657-.269261.14425418-.269261.14425418l-.270485.14486542-.269262.14425417s-.089957.04828848-.269873.14425418c12.136947 22.58066825 24.274505 45.16072525 36.411452 67.74139355.179303-.0971882.269873-.1454767.269873-.1454767l.269261-.1442542.269873-.1442541s.089346-.0482885.269261-.1448655c-12.136946-22.580057-24.273893-45.160114-36.410839-67.740171" fill="url(#n)"/><path d="m135.110107 260.233125c0 3.375914-2.739732 6.112465-6.119572 6.112465-3.379839 0-6.119571-2.736551-6.119571-6.112465 0-3.375915 2.739732-6.112465 6.119571-6.112465 3.37984 0 6.119572 2.73655 6.119572 6.112465" fill="#e6e6e6"/><path d="m374.691645 296.118245c0 10.127744-8.219196 18.337395-18.358715 18.337395-10.139518 0-18.358715-8.209651-18.358715-18.337395 0-10.127743 8.219197-18.337395 18.358715-18.337395 10.139519 0 18.358715 8.209652 18.358715 18.337395" fill="#e6e6e6" opacity=".3"/><path d="m362.452502 296.118245c0 3.375915-2.739732 6.112465-6.119572 6.112465-3.379839 0-6.119571-2.73655-6.119571-6.112465 0-3.375914 2.739732-6.112465 6.119571-6.112465 3.37984 0 6.119572 2.736551 6.119572 6.112465m330.762545-46.645626c0 3.375914-2.739732 6.112465-6.119572 6.112465-3.379839 0-6.119572-2.736551-6.119572-6.112465s2.739733-6.112465 6.119572-6.112465c3.37984 0 6.119572 2.736551 6.119572 6.112465" fill="#e6e6e6"/><path d="m723.200948 105.923028c0-10.1277428 8.219197-18.3373946 18.358715-18.3373946 10.138907 0 18.358715 8.2096518 18.358715 18.3373946 0 10.127744-8.219808 18.337396-18.358715 18.337396-10.139518 0-18.358715-8.209652-18.358715-18.337396" fill="#e6e6e6" opacity=".3"/><path d="m735.440092 105.923028c0-3.375914 2.739732-6.1124645 6.119571-6.1124645 3.37984 0 6.119572 2.7365505 6.119572 6.1124645 0 3.375915-2.739732 6.112466-6.119572 6.112466-3.379839 0-6.119571-2.736551-6.119571-6.112466" fill="#e6e6e6"/><path d="m165.096009 116.683534c0-10.127743 8.219196-18.3373949 18.358715-18.3373949 10.139518 0 18.358715 8.2096519 18.358715 18.3373949s-8.219197 18.337395-18.358715 18.337395c-10.139519 0-18.358715-8.209652-18.358715-18.337395" fill="#e6e6e6" opacity=".3"/><path d="m177.335152 116.683534c0-3.375914 2.739732-6.112465 6.119572-6.112465 3.379839 0 6.119571 2.736551 6.119571 6.112465 0 3.375915-2.739732 6.112465-6.119571 6.112465-3.37984 0-6.119572-2.73655-6.119572-6.112465m330.762483-46.6455651c0-3.3759144 2.739733-6.112465 6.119572-6.112465 3.37984 0 6.119572 2.7365506 6.119572 6.112465s-2.739732 6.112465-6.119572 6.112465c-3.379839 0-6.119572-2.7365506-6.119572-6.112465" fill="#e6e6e6"/><path d="m331.548359 49.5109666c0 27.0067042-21.91847 48.8997201-48.956574 48.8997201-27.038103 0-48.956573-21.8930159-48.956573-48.8997201s21.91847-48.8997201 48.956573-48.8997201c27.038104 0 48.956574 21.8930159 48.956574 48.8997201" fill="#3ea7b4"/><path d="m295.572378 96.6732928c-4.134006 1.1325807-8.486582 1.7373939-12.980593 1.7373939-4.524294 0-8.905242-.612992-13.064137-1.7603624l-1.038049-18.967312h28.122492z" fill="#e2e2e2"/><path d="m305.874859 92.5372785c-1.362061.7368966-2.763055 1.4111493-4.19911 2.0188903-3.331998-6.6957701-7.50928-12.8147462-12.420852-19.007446l-.282724-.3612466 3.674191-2.8685799.266201.3331294c5.12192 6.4573379 9.48112 12.877308 12.962293 19.8852502z" fill="#e2e2e2"/><path d="m290.618007 97.7567212c-.973593.1603814-1.956871.292072-2.948935.3941732v-29.3379858l5.025392 3.5042762zm-13.185755.3856386c-.992482-.1038309-1.976137-.2372802-2.950063-.399447l-2.075329-25.425728 5.025392-3.5042762z" fill="#f6f7f8"/><path d="m263.478655 94.5438141c-1.433979-.6079624-2.832948-1.282262-4.193049-2.0190438 3.472837-6.9628447 7.812762-13.3483793 12.903458-19.7707887l.26559-.3386306 3.674802 2.8734698-.282724.3563567c-4.885391 6.1589418-9.045579 12.2448037-12.368077 18.8986366z" fill="#e2e2e2"/><path d="m304.612636 81.1691344v-40.2365234c0-10.1350783-4.082367-18.3514537-22.061668-18.3514537-17.979914 0-22.06228 8.2163754-22.06228 18.3514537v40.2365234z" fill="#6b4339"/><path d="m277.432 76.416h10.237v-7.603h-10.237z" fill="#ccc"/><path d="m288.447964 98.0644519c-1.920146.2286209-3.874411.3462348-5.856179.3462348-2.010287 0-3.992273-.1210234-5.939054-.3561738l-1.281306-25.1728419h14.358351z" fill="#fec232"/><path d="m275.700352 72.4780649 6.850249 6.7084304 6.850248-6.7084304s-3.51753-1.5690698-3.51753-5.4400938v-13.5244401h-6.36925s-.022642 10.2695524 0 13.3765184c.027538 3.7720022-3.813717 5.5880155-3.813717 5.5880155" fill="#c18452"/><path d="m262.589843 45.2325467c0 8.9877686 9.810285 16.6552447 19.960819 16.6552447 10.150533 0 19.960819-7.6674761 19.960819-16.6552447 0-8.9877685-3.693774-16.2738268-19.960819-16.2738268-16.267046 0-19.960819 7.2860583-19.960819 16.2738268" fill="#cf986c"/><path d="m283.824328 49.5807098-.2252.0922983c-.665197.2726159-1.410561.2726159-2.075147 0l-.286396-.1173594c-.543418-.2224937-.793096-.8508551-.551373-1.3856958l1.875037-4.1375275 1.84811 4.0776254c.257022.5672367-.008567 1.2341067-.585031 1.470659" fill="#c18452"/><path d="m261.067171 43.8057752c5.133097-.2823959 11.198204-3.850853 13.838187-10.315396 8.21369 9.7506042 20.236812 12.5513357 29.116923 10.6766426l.011627-5.6687c-2.848661-9.2200423-4.307567-10.965151-17.110935-14.149134l-13.560971.9706594-.299247 1.6149133-6.353951 1.9199252c-5.811145 6.2897265-4.901165 8.2041506-5.393178 11.7102605z" fill="#6b4339"/><path d="m521.255082 182.762704c0 47.261579-38.357476 85.57451-85.674004 85.57451s-85.674004-38.312931-85.674004-85.57451c0-47.26158 38.357476-85.5745103 85.674004-85.5745103s85.674004 38.3129303 85.674004 85.5745103" fill="#f4793b"/><path d="m471.00122 191.920399c0-1.191931.710482-1.899143 1.892172-1.899143 0 0 5.65938-.002445 6.610973-.002445 1.240437 0 1.82608-.901588 1.531117-2.106355-.0563-.251834-5.941492-22.017099-5.941492-22.017099-4.451989-18.946808-20.684765-32.842886-40.620493-32.842886-22.805808 0-41.565967 18.465757-41.565967 41.243246 0 13.800113 6.648914 26.013429 16.931631 35.152787v19.960865l38.971268 6.332514v-17.083117c0-2.048287 1.218407-3.117357 3.116698-3.117357 0 0 15.660596-.003056 15.870497-.003056 1.763049 0 3.203596-1.430928 3.203596-3.190096v-.017115z" fill="#fff"/><path d="m466.602839 169.389975c-.879994-.968214-1.988249-1.375304-3.204208-1.586184 2.289332-.301956 3.49856-1.857579 3.874301-3.292785.413071-1.575183.212961-3.06479-.593598-4.463934-.815127-1.413813-1.991921-2.323347-3.534665-2.723103-1.061134-.274449-2.031698-.301344-3.029188-.005501.777186-1.146698 1.114986-2.462101.954041-3.89364-.180527-1.61797-.903248-2.935206-2.158372-3.95232-1.271036-1.029339-2.696284-1.454155-4.279417-1.273838-1.114374.12714-2.114312.518337-2.953917 1.182151.31577-1.37775.126675-2.713934-.569732-4.004276-.77535-1.435818-1.936233-2.386917-3.480813-2.864301-1.564162-.478606-3.044487-.341075-4.445869.414425-.986475.531785-1.761824 1.261002-2.292391 2.190708-.201334-1.403422-.88795-2.591074-2.00722-3.547064-1.239213-1.058679-2.666297-1.530561-4.279416-1.415647-1.630254.115526-2.964321.776895-3.997916 1.987163-.72211.844742-1.192093 1.793397-1.354874 2.842296-.703138-1.215158-1.776511-2.067236-3.155863-2.541563-1.540908-.529339-3.041427-.445599-4.500945.251222-1.474204.705379-2.470471 1.810512-2.988187 3.314179-.359218 1.046454-.436937 2.054399-.206841 3.082516-1.097239-.873471-2.442933-1.302566-3.899391-1.241442-1.630254.067237-2.994919.692543-4.100113 1.874082-1.114374 1.192542-1.638821 2.583739-1.571506 4.17298.046509 1.094742.31577 2.105133.895293 2.977382-1.33835-.385697-2.693835-.248166-4.011379.350855-1.484608.672983-2.515144 1.76528-3.092832 3.273225-.583807 1.526283-.667033 3.095352-.008567 4.543395.473043 1.034841 1.65412 2.133862 2.928827 2.358189l.020807.00489c-1.251453.237164-2.331557.917481-3.232358 1.907701-1.097239 1.205378-1.611283 2.616135-1.547028 4.229214.064867 1.632028.687228 2.982883 1.866469 4.051953.842665.76467 1.760601 1.294009 2.834586 1.478606l9.68055.007335c-2.278928.031784-4.116023 1.883861-4.116023 4.166256 0 2.302565 1.868305 4.168701 4.173547 4.168701h7.684347l-.012851 44.117327 6.729081 1.092298v-48.669892c0-3.17298 1.503578-4.728603 4.489929-4.858798l28.267526.022005c1.699405 0 3.084264-.679095 3.904287-1.42176 1.147419-1.040341 1.821184-2.49633 1.884216-4.083737.062419-1.568459-.496297-3.049509-1.562327-4.221269" fill="#fcb816"/><path d="m117.363349 182.762704c0 27.006704-21.9184698 48.89972-48.9565734 48.89972-27.0381037 0-48.9565737-21.893016-48.9565737-48.89972s21.91847-48.89972 48.9565737-48.89972c27.0381036 0 48.9565734 21.893016 48.9565734 48.89972" fill="#4dbcb6"/><path d="m56.7735314 230.273514c-4.2494686-1.034483-8.2816889-2.622935-12.0156351-4.684426.3676881-3.611005.6436113-6.253643.7022601-6.63833.8359334-5.374079 4.4519884-8.672976 7.9652345-9.723709.0048956 0 .0048956 0 .0104033-.00489.1689001-.051345.3433079-.097188.5128201-.138142l3.8620617 9.682145c.2772166-.107579.4155189-.194376.4718189-.23044-.1077044.112469-.5642245.630195-.7747377 1.998165-.0813276.54744-.3577469 4.59296-.7342258 9.739627zm35.4230614-4.762541c-3.7299557 2.075361-7.7597744 3.677806-12.008199 4.726174-.3758207-5.129228-.6523926-9.157009-.7335271-9.703443-.2258121-1.460268-.728229-1.951711-.7949323-2.013446.0305978.025672.1689002.11797.4920135.245721l3.8675694-9.682145c.1584969.036064.3176057.081907.4767146.128362 3.528545 1.03484 7.1654065 4.344129 8.0062357 9.738379.058226.381914.3306055 2.989347.6941252 6.560398z" fill="#e2e2e2"/><path d="m87.5724906 227.773221c-5.8863064 2.503764-12.3640197 3.889203-19.165715 3.889203-6.7389777 0-13.1599208-1.360007-19.0027338-3.820228l-.4254989-12.042108c0-3.089239 1.7850791-5.368578 4.4470928-6.572733.0048956 0 .0048956 0 .0097913-.00489.9387423-.420538 1.985189-.712102 3.1032348-.850855.5385223-.071516 1.0923435-.10758 1.6620757-.10758h20.5617609c.5642245 0 1.1180458.036064 1.6565681.10758 1.1076424.138753 2.1436859.425427 3.0769206.840464 2.6828203 1.198654 4.4880939 3.483493 4.4880939 6.588014z" fill="#eee"/><path d="m71.7128772 231.552682c-1.0926117.072773-2.1950342.109742-3.3061016.109742-1.0608534 0-2.1138254-.033703-3.1579015-.100094l.9271952-10.249898.1897067-2.080072h4.2310719l.1897067 2.080072z" fill="#fcb816"/><path d="m59.231 210.706h3.573v-5.461h-3.061z" fill="#e2e2e2"/><path d="m77.727 210.706h-3.573v-5.461h3.06z" fill="#e2e2e2"/><path d="m62.653 213.809h11.658v-12.445h-11.658z" fill="#b07345"/><path d="m47.7084258 189.762454h-2.8786465c-1.5843571 0-2.8804824-1.29462-2.8804824-2.877137v-9.267108c0-1.582517 1.2961253-2.877137 2.8804824-2.877137h2.8786465c1.5843571 0 2.8804824 1.29462 2.8804824 2.877137v9.267108c0 1.582517-1.2961253 2.877137-2.8804824 2.877137m44.0464129 0h-2.8786465c-1.5843571 0-2.8804824-1.29462-2.8804824-2.877137v-9.267108c0-1.582517 1.2961253-2.877137 2.8804824-2.877137h2.8786465c1.5843571 0 2.8804824 1.29462 2.8804824 2.877137v9.267108c0 1.582517-1.2961253 2.877137-2.8804824 2.877137" fill="#b07345"/><path d="m79.3280692 201.732128h-22.5102325c-5.0266162 0-9.1395804-4.108188-9.1395804-9.129578v-23.054384c0-5.20293 4.2616698-9.460262 9.4706492-9.460262h22.1742681c5.2095914 0 9.4712611 4.257332 9.4712611 9.460262v22.72859c0 5.200485-4.2598339 9.455372-9.4663655 9.455372" fill="#b97e4f"/><path d="m88.5645224 162.184724h.0024478c-.0061196-.029951-.014687-.059902-.0214185-.089854-.0189707-.085574-.0391652-.170537-.0605837-.255501-.0220305-.08863-.0465088-.176039-.0709871-.264058-.0214185-.075795-.0416131-.1522-.0648674-.227384-.0458968-.149755-.0954654-.297677-.1474817-.444376-.0232544-.064792-.0489566-.128362-.0734349-.191931-.0379413-.099022-.0764946-.197433-.1168838-.295232-.0269261-.06357-.0538522-.12714-.0820023-.190098-.0477326-.108191-.0973011-.214548-.1487056-.320904-.0226424-.045844-.0440609-.09291-.0667033-.138753-.0764946-.15159-.1560491-.300122-.2392752-.447433-.0165229-.02934-.0348816-.058068-.0514044-.087408-.072211-.124083-.1462578-.246332-.2233644-.366748-.0226424-.036064-.0458968-.071516-.0691512-.106968-.085062-.129584-.1725719-.257335-.2631415-.383252-.0097914-.014058-.0195827-.028117-.029986-.042176-.2154089-.295843-.4473406-.579461-.6933474-.850244-.0104033-.011613-.0208066-.023227-.0312098-.034229-1.8707531-2.045231-4.5572451-3.334961-7.5325809-3.334961h-20.688436c-4.1925186 0-7.8122453 2.558066-9.3813034 6.187648-.0048957.012225-.0104033.02445-.015299.036675-.2172448.507946-.3941004 1.036674-.5268951 1.582517-.0073435.028729-.014075.058068-.0208065.086797-.0140751.059291-.029374.117971-.0422251.177873h.0048957c-.1480937.688263-.2300959 1.399754-.2300959 2.130805v10.342902c.0416131.000611.0826142.003056.1242273.003056 4.1625327 0 7.5374764-3.371024 7.5374764-7.529334 0-.213936-.0122391-.424816-.0293739-.634474h25.8502948c-.0177468.209658-.0299859.420538-.0299859.634474 0 4.15831 3.3749438 7.529334 7.5380884 7.529334.0410012 0 .0820023-.002445.1236154-.003056v-10.342902c0-.731051-.0820023-1.442542-.2300959-2.130805" fill="#6b4339"/><path d="m68.964 180.788 2.725 5.443h-5.449z" fill="#b07345"/><path d="m68.797 216.56v.124l-.034-.062z" fill="#e9b284"/><path d="m68.763 216.622-.034.062v-.124z" fill="#e9b284"/><path d="m72.6631213 216.408095c0-1.385084-1.1345686-2.517724-2.5212636-2.517724h-3.3186437c-1.3866949 0-2.5212635 1.13264-2.5212635 2.517724v2.387529c0 1.384473 1.1345686 2.517724 2.5212635 2.517724h3.3186437c1.386695 0 2.5212636-1.133251 2.5212636-2.517724z" fill="#fcb816"/><path d="m59.683 205.245 8.554 8.564-5.43 5.267-6.383-10.588z" fill="#e2e2e2"/><path d="m77.275 205.245-9.038 8.564 5.914 5.267 6.383-10.588z" fill="#e2e2e2"/><path d="m262.212204 316.014441c0 27.006704-21.91847 48.89972-48.956574 48.89972-27.038103 0-48.956573-21.893016-48.956573-48.89972s21.91847-48.89972 48.956573-48.89972c27.038104 0 48.956574 21.893016 48.956574 48.89972" fill="#0b6d79"/><path d="m228.47524 362.505081c-4.790499 1.563607-9.906198 2.40908-15.21961 2.40908-5.581682 0-10.945184-.933003-15.942715-2.651392l-.015843-7.895177c-.08139-3.081294 1.127838-5.825179 3.01389-7.371022 1.01952-.844742 2.239151-1.330683 3.556083-1.330683h18.090066c1.542744.010391 2.951469.690708 4.0585 1.822126 1.573341 1.602077 2.552473 4.100241 2.475366 6.879579l-.015299 7.92909z" fill="#3ea7b4"/><path d="m202.980156 363.835279c-4.005483-.854523-7.82945-2.1984-11.406162-3.965968 3.138296-6.141808 6.373908-10.864198 8.313983-12.567178 2.327885-2.043397 4.369374 1.754277 4.369374 1.754277zm31.765045-3.871574c-3.18347 1.555893-6.560927 2.776864-10.086358 3.616953l-1.682701-14.309334s.530567-3.858799 2.920259-1.887529c2.022206 1.667701 5.474013 6.403464 8.8488 12.57991z" fill="#3ea7b4"/><path d="m204.237 349.363h17.699v-7.39h-17.699z" fill="#e2e2e2"/><path d="m213.110229 330.072744c-4.053604 0-7.339814-3.282394-7.339814-7.33129v-30.363059c0-4.048897 3.28621-7.331291 7.339814-7.331291 4.053605 0 7.339815 3.282394 7.339815 7.331291v30.363059c0 4.048896-3.28621 7.33129-7.339815 7.33129" fill="#fdb933"/><path d="m218.631796 323.087541h-8.754659c-1.51031 0-2.734224-1.223104-2.734224-2.73166v-3.102688c0-1.674815 1.359768-3.033005 3.037143-3.033005h8.45174z" fill="#8cc8ac"/><path d="m221.93612 345.848038-8.849512 13.771995-8.849513-13.771995s5.500883-2.026893 5.500883-7.028112v-17.471259h6.505717s.220304 13.267106.191542 17.279939c-.035493 4.873468 5.500883 7.219432 5.500883 7.219432" fill="#f2be86"/><path d="m221.141004 302.108094c0 4.347797-3.528545 7.871633-7.880784 7.871633-4.352851 0-7.881396-3.523836-7.881396-7.871633 0-4.347796 3.528545-7.871632 7.881396-7.871632 4.352239 0 7.880784 3.523836 7.880784 7.871632" fill="#6b4339"/><path d="m195.275656 322.13198h-8.75466c-1.51031 0-2.734224-1.223105-2.734224-2.731661v-6.787892c0-1.675427 1.359768-3.033617 3.036531-3.033617h8.452353zm35.96307 0h8.754659c1.510311 0 2.734225-1.223105 2.734225-2.731661v-6.787892c0-1.675427-1.359769-3.033617-3.036531-3.033617h-8.452353z" fill="#f2be86"/><path d="m237.561957 303.268607c-6.786605-2.644864-15.217539-4.020168-23.36942-4.262222-.182363-.022616-.365951-.03423-.548926-.031785-.129123.002445-.258858.007335-.387981.00978-.129123-.002445-.258858-.007335-.38798-.00978-.182976-.002445-.365951.009169-.548926.031785-8.151882.242054-16.582815 1.617358-23.369421 4.262222-3.765372 1.467603-8.440725 7.810508-2.181627 17.023215 0 0 7.604792 13.597178 23.871837 15.205368.648063.102078 1.335291.156479 2.064744.156479.185423 0 .367786-.004279.551373-.007335.183588.003056.365951.007335.551374.007335.729453 0 1.416681-.054401 2.065355-.156479 16.266434-1.60819 23.871837-15.205368 23.871837-15.205368 6.258486-9.212707 1.583134-15.555612-2.182239-17.023215" fill="#fbce97"/><path d="m237.561957 303.268607c-6.786605-2.644864-15.217539-4.020168-23.36942-4.262222-.182363-.022616-.365951-.03423-.548926-.031785-.129123.002445-.258858.007335-.387981.00978-.129123-.002445-.258858-.007335-.38798-.00978-.182976-.002445-.365951.009169-.548926.031785-8.151882.242054-16.582815 1.617358-23.369421 4.262222-2.791748 1.088019-6.08163 4.856353-5.047422 10.485934 2.677924.033007 5.560855-.187042 8.534966-.690098 10.942407-1.849632 19.460238-6.907085 20.671914-11.90158 1.211675 4.994495 9.729507 10.051948 20.671913 11.90158 3.08304.521394 6.068779.738997 8.829318.68643 1.032372-5.627746-2.256898-9.394858-5.048035-10.482266" fill="#fdb933"/><path d="m213.118 317.773 3.133 6.258h-6.266z" fill="#f2be86"/><path d="m204.237 341.973 8.85 17.647h-9.054z" fill="#fff"/><path d="m221.955 341.973-8.849 17.647h8.863z" fill="#fff"/><path d="m706.863038 49.5109666c0 27.0067042-21.91847 48.8997201-48.956574 48.8997201-27.038103 0-48.956573-21.8930159-48.956573-48.8997201s21.91847-48.8997201 48.956573-48.8997201c27.038104 0 48.956574 21.8930159 48.956574 48.8997201" fill="#0b6d79"/><path d="m641.114489 95.45845c-3.50299-1.2775565-6.818899-2.943381-9.895522-4.9453281.678815-3.3083048 1.416311-6.1496536 2.183264-7.8901377.208677-.4773835.434489-.9229822.667645-1.3447423 2.967992-5.415644 7.367964-6.0880151 8.279168-6.1735896l.232544 2.5672353.722721 8.031779c.489566-.0433985.709871-.1344742.764947-.1589241-.097913.0733496-.489566.396699-.917936 1.3685809-.226424.5140583-.7472 1.968825-1.512146 5.7762795-.163613.8117027-.338618 1.7301247-.524685 2.7688471z" fill="#e2e2e2"/><path d="m668.349654 97.2957154c-3.365021.730287-6.859126 1.1149713-10.44319 1.1149713-3.718361 0-7.339896-.4140533-10.820914-1.1985183l1.359322-24.1125269v-.0244499c.036106 0 .067315-.0061124.104033-.0061124h.018359c1.462577-.091687 3.359644-.1222493 5.434179-.1222493h.085062c2.300959 0 4.816715.0366747 7.17887.0672371.036105 0 .066703.0061124.104033.0061124h.006119c2.062296.0244499 4.0022.0550122 5.586557.0550122h.018971c.011627.2078238.048956.8679701.10954 1.8948642v.0366748c.21859 3.8628641.723295 12.7979679 1.259059 22.2889848z" fill="#fcb816"/><path d="m663.943 65.356v4.851l-6.344 6.651-6.111-6.651v-4.851z" fill="#f2be86"/><path d="m676.132691 41.3457525h-3.969154v-18.0067107h-28.896006v18.0067107h-3.968542c-1.723272 0-3.133221 1.4083119-3.133221 3.1295821v6.2072082c0 1.7212701 1.409949 3.1295821 3.133221 3.1295821h3.968542v3.8453517c0 7.5195545 6.159961 11.6375222 13.687646 11.6375222h1.521325c7.527686 0 13.687035-4.1179677 13.687035-11.6375222v-3.8453517h3.969154c1.723271 0 3.13322-1.408312 3.13322-3.1295821v-6.2072082c0-1.7212702-1.409949-3.1295821-3.13322-3.1295821" fill="#fbce97"/><path d="m641.411 42.194h32.603v-3.116h-32.603z" fill="#fbce97"/><path d="m653.834 52.704h7.415l-1.967-11.355h-3.307z" fill="#f2be86"/><path d="m644.423457 25.7297491v12.3318982h-2.799092v-9.8410687c0-8.4321455 6.907772-13.0501128 15.349721-13.0501128h1.483385c8.441949 0 15.349721 4.6179673 15.349721 13.0501128v9.8410687h-2.642431v-12.3318982z" fill="#b77849"/><path d="m648.544315 72.0067939c1.362217-2.0910743 2.97656-1.7475538 2.97656-1.7475538l6.218709 6.516499v.1699265l-4.338777 4.2628331-4.82161-5.6882599s-.034882-2.7878953-.034882-3.5134449" fill="#6b4339"/><path d="m684.259182 90.7290309c-3.086216 1.9726746-6.408657 3.6090099-9.915504 4.857246-.898886-5.0303326-1.543375-7.2792678-1.892093-8.2445919-.067316-.1894864-.128511-.3239607-.171348-.4284838-.42837-.9712707-.820023-1.2952314-.917936-1.3685809.055076.0244498.275381.1161368.764946.158924l.385533-4.3031753.569733-6.295839c.238051.0244499.709258.0855745 1.327335.262836 1.958263.5433981 5.391342 2.2065999 7.618866 7.255496.785597 1.7782538 1.53931 4.7056701 2.230468 8.1061689z" fill="#e2e2e2"/><path d="m679.818532 93.2512031c-4.022272 2.0142257-8.36091 3.4912116-12.921579 4.3367311l.194988-22.5812036v-.0366748l.018971-1.8948642.844501.2506111 2.802764.8435202c1.357933.3905865 2.606325.7701706 3.71458 1.1980431 3.199924 1.2286055 5.213263 2.8728586 5.213263 6.4364257l.132509 11.4474131zm-31.079084 4.3036678c-4.562517-.8632459-8.901041-2.3588459-12.920762-4.3921011l.131489-11.3589781c0-.183374.005508-.354523.018359-.525672.257022-4.3704125 3.824732-5.6418052 8.909485-7.1087968l2.674252-.800733.893458-.2689484.079554-.0244499.00612.7823955.061808 6.7114866z" fill="#eee"/><path d="m648.759885 97.5587331c-1.651712-.3117809-3.274095-.7064304-4.862653-1.1794573l-.3594-3.6891839-.544642-5.5623432c-.574627-3.2396065-.379413-6.5770124 1.407502-9.345959l.079554-.1100244 3.072025-4.3031754 1.065418-1.4975539v.0305623l-.048957 1.1674809-.012851.2567235v.0183374l-.024478.513447-.00612.1589241.067928 6.5525625zm22.885658-1.0998646c-1.590797.4636775-3.215098.8488789-4.868419 1.1511265l.229755-23.5934838-.030597-.7396082v-.012225l-.012852-.1894864-.048956-1.1735933v-.0305623l1.040939 1.4547667 3.176058 4.455987c.727617 1.130806 1.192704 2.3471866 1.443607 3.6185793.373906 1.8520769.300471 3.8080657-.042225 5.7273797l-.018359.2139363-.868952 9.1171861z" fill="#fff"/><path d="m666.987174 72.0067939c-1.362216-2.0910743-2.976559-1.7475538-2.976559-1.7475538l-6.218709 6.516499v.1699265l4.338776 4.2628331 4.821611-5.6882599s.034881-2.7878953.034881-3.5134449" fill="#6b4339"/><g fill="#fff"><path d="m669.095061 38.6519891c-5.359521-.2933983-8.762615 1.1283611-8.395441 3.0550101.367787 1.9315389.60645 7.2982832 5.580438 7.2982832h1.786303s4.330821.1332517 4.941554-3.362467c.610733-3.4951075 1.442383-6.6974279-3.912854-6.9908263m4.363071 3.5918067v.0091687z"/><path d="m673.458 39.354.161-.161-.161-.16z"/><path d="m672.374 38.129h.005z"/><path d="m672.866 38.615-.487-.491-.492.491z"/><path d="m660.860565 40.7208141c.00918-.0232274.022643-.0415648.036718-.0599022-.014075.0183374-.027538.0366748-.036718.0599022m-.18836.646821c.004895-.0232274.004895-.0415648.009179-.0599022-.004284.0183374-.004284.0366748-.009179.0599022m.312343-.8486546c-.00918.0183374-.018359.0317848-.027538.0458434.009179-.0140586.018358-.027506.027538-.0409535zm-.202069.3578237c.00918-.0226162.018359-.0415648.031822-.0641809-.013463.0226161-.022642.0415647-.031822.0641809m-.105623.6559897v-.0415648zm.050486-.4954764c.009179-.0232274.013463-.0458435.022643-.0641809-.00918.0183374-.013464.0409535-.022643.0641809m-.036717.1605745c.004895-.0183374.009179-.0415648.014075-.0599022-.004896.0183374-.00918.0415648-.014075.0599022m12.303582 4.513872c.004896-.0232274.00918-.0458435.014075-.0690709.119332-.6925422.252127-1.3716371.339636-2.0183359-.087509.6466988-.220304 1.3257937-.339636 2.0183359-.004895.0232274-.009179.0458435-.014075.0690709"/><path d="m672.994 39.335v.482l.464-.463v-.321l-.083-.078z"/><path d="m661.581573 39.9501545c.009179-.0091687.023254-.0140587.031822-.0232274-.008568.0091687-.022643.0140587-.031822.0232274m-.587846.5596573s-.004896.0048899-.009179.0091687v.0048899c.004283-.0048899.009179-.0091687.009179-.0140586m3.683248-1.6651578c.041613-.0048899.07833-.0091687.115048-.0183373-.036718.0091686-.073435.0134474-.115048.0183373m.362829-.0550733c.045897-.0048899.09669-.0140586.142586-.0183374-.045896.0042788-.096689.0134475-.142586.0183374m.376599-.0458435c.050792-.0091686.105868-.0140586.156049-.0183373-.050181.0042787-.105257.0091687-.156049.0183373m2.062112-.128484h.206841zm-3.14595.2935817c.00918 0 .023255-.0048899.032434-.0048899-.009179 0-.023254.0048899-.032434.0048899m1.469677-.2064179c.059972-.00489.115048-.0091687.170124-.0140587-.055076.00489-.110152.0091687-.170124.0140587m.399485-.0367359c.064256 0 .124228-.00489.183588-.0091687-.05936.0042787-.119332.0091687-.183588.0091687m.840462-.0412592c.064256 0 .128511 0 .197663-.0048899-.069152.0048899-.133407.0048899-.197663.0048899m-.427146.0183986c.064256-.00489.128511-.00489.192767-.0091687-.064256.0042787-.128511.0042787-.192767.0091687m-5.217179 1.449571.004283-.0091687zm7.697197-1.4404024c-.220305-.0091686-.43143-.0183373-.643167-.0232273.211737.00489.422862.0140587.643167.0232273.766782.0458435 1.40077.1466992 1.933785.3025671-.533015-.1558679-1.167003-.2610023-1.933785-.3025671m-8.023248 1.7614902c.013463-.0140587.027538-.032396.041613-.0507334-.014075.0183374-.02815.0366747-.041613.0507334m7.242574-1.7890574c-.179303-.0048899-.353711-.0091687-.528119-.0091687.174408 0 .348816.0042788.528119.0091687m-7.104823 1.6376517c.014075-.0140587.027538-.0275061.041613-.0415648-.014075.0140587-.027538.0275061-.041613.0415648m.303164 5.2157664c.133407.3575792.289456.7108796.473043 1.0458427-.183587-.3349631-.339636-.6882635-.473043-1.0458427m.472982-5.7800081s-.004284 0-.00918.00489l.004896-.00489z"/><path d="m671.028601 38.9547395c-.533015-.1558678-1.166391-.2567235-1.933785-.302567-.220305-.0091687-.43143-.0183374-.642555-.0232273-.045897-.0042788-.091794-.0042788-.13769-.0042788-.179304-.0048899-.353712-.0091687-.528119-.0091687h-.101585-.20623c-.082614.0042788-.160945.0042788-.238663.0042788-.069151.0048899-.133407.0048899-.197662.0048899-.078331.0042788-.156049.0042788-.23438.0091687-.064255.0042788-.128511.0042788-.192766.0091687-.078331.0042788-.151766.0091687-.229484.0134474-.059972.00489-.119332.0091687-.184199.0091687-.073435.0091687-.151154.0140587-.229484.0232274-.055077.0042787-.110153.0091687-.169512.0134474-.078331.00489-.151766.0140587-.230096.0232274-.050181.0042787-.105257.0091687-.156049.0183374-.077719.0091687-.15605.0183374-.23438.0275061-.045897.0042787-.096077.0134474-.141974.0183374-.082614.0134474-.165229.0275061-.248455.0366748-.036717.0091687-.073435.0134474-.114436.0183374-.105868.0183374-.211125.0366748-.312098.0592909-.009179 0-.023254.00489-.032434.00489-.073434.0134474-.13769.027506-.206841.0458434zm-9.258729.8715764c.018359-.0140586.041613-.0275061.064256-.0415647-.022643.0140586-.045897.0275061-.064256.0415647m1.051771 7.8396643c-.330457-.3392418-.606449-.7292171-.835933-1.1424197.229484.4132026.505476.8031779.835933 1.1424197m-.128633-8.2984048c.036717-.0140586.069151-.0232273.100973-.0366748-.031822.0134475-.064256.0226162-.100973.0366748m8.725958-.2889973c-.119331-.0458435-.252738-.0874083-.390428-.1240831.13769.0366748.266201.0782396.390428.1289731zm-1.749769 9.7388071c1.285722-.2982883 2.934947-1.0825175 3.324763-3.1057435-.389816 2.023226-2.039041 2.8074552-3.324763 3.1057435"/><path d="m672.994207 40.2850564c-.059972-.0965769-.124227-.1833739-.197662-.2707822l-8.606566 8.5922921c.142586.0592909.285172.1191931.436326.1650366.482222.1515891 1.0287.2341074 1.653508.2341074h1.786303.045897c.179303 0 .804112-.0091687 1.557431-.188264 1.285722-.2982883 2.934334-1.0825175 3.324763-3.1057434.004896-.0226162.00918-.0458435.014075-.0684596.119332-.6931536.252127-1.3716372.339636-2.018336.064256-.4773835.105257-.9364296.110153-1.3716371v-.0091687c0-.7389971-.124228-1.408312-.463864-1.9590451m-1.965606-1.3303169h-6.902877l-.137691.0275061c-.013463.00489-.027538.00489-.045896.0091687-.091794.0232274-.183587.0458435-.271097.0690709-.031822.0042787-.064256.0134474-.091794.0226161-.073435.0183374-.14687.0366748-.216021.0599022-.031822.0091687-.068539.0183374-.100973.0317848-.064255.0183374-.128511.0366748-.187871.0599021-.036717.0091687-.069151.0226162-.105868.0317849-.05936.0232273-.115048.0415647-.174408.0641808-.032434.0140587-.064255.0232274-.100973.0366748-.055076.0232274-.105868.0458435-.160945.0647922-.031821.0134474-.064255.0275061-.091793.0409535-.055076.0232273-.105869.0458435-.151766.0690708-.031821.0134475-.059359.0275061-.091793.0409535-.045897.0275061-.096077.0507335-.141974.0782396-.023255.0091687-.045897.0226161-.069151.0366748 0 0-.004284 0-.00918.0042787-.050792.0275061-.096689.0550122-.142586.0825183-.022642.0140587-.045897.0275061-.064255.0415648-.055076.0317848-.105257.0641808-.156049.1008556-.00918.0091687-.022643.0140587-.031822.0232274-.064256.0458435-.124227.086797-.179304.1326405l-.004895.00489c-.050181.0458434-.100973.0916869-.14687.1326404-.013463.0140587-.027538.0275061-.041001.0415648-.032434.0317848-.064256.0684596-.096689.1008557-.013463.0183374-.027538.0366748-.041001.0507334-.027538.0317849-.050793.0641809-.078331.0959657 0 0-.004896.0091687-.009179.0140587-.00918.0134474-.018359.0275061-.027538.0409535-.022643.0323961-.041613.0641809-.059972.096577-.013463.0183374-.027538.0366748-.036718.0592909-.018358.032396-.031821.0599021-.045896.091687-.013463.0232273-.022643.0415647-.031822.0641808-.00918.0323961-.023255.0647922-.032434.096577-.009179.0183374-.013463.0415648-.022642.0641809-.00918.032396-.014075.0641809-.023255.1008556-.004283.0183374-.009179.0415648-.013463.0599022-.004895.0366748-.009179.0733496-.009179.1100244-.004896.0183374-.004896.0366748-.009179.0599021 0 .0409535 0 .0825183.004283.1234718v.0415648c.004896.0592909.00918.1191931.023255.1742052.082614.4400975.160332 1.0550115.28456 1.7432751.100973.5458431.234379 1.1326397.427146 1.7249376.032434.1008557.064255.2017113.100973.302567.133406.3575792.289455.7108797.473043 1.0458428.229484.4125914.505476.8025666.835933 1.1424197l8.597386-8.5831234c-.124227-.0501222-.252738-.091687-.390428-.1283618m1.533932.8073344c-.069152-.0641809-.14687-.1332517-.229484-.1925426-.032434-.0232274-.064256-.0458435-.09669-.0690709l-8.73936 8.7298226c.050181.0317848.096077.0641808.14687.0959657.073435.0458434.146869.0874082.224588.124083z"/><path d="m672.332865 39.569409c-.031822-.0232273-.064255-.0458435-.096689-.0690708.032434.0232273.064867.0458435.096689.0690708m-9.364291-.3027504c.036717-.0091687.069151-.0232273.105869-.032396-.036718.0091687-.069152.0232273-.105869.032396m-.528119.206418c.027538-.0140587.059972-.0275061.091794-.0415648-.031822.0140587-.064256.0275061-.091794.0415648m-.243498.1100855c.032434-.0140587.059972-.0275061.091794-.0415648-.031822.0140587-.05936.0275061-.091794.0415648m1.06554-.4082516c.031822-.0140586.069151-.0232273.100973-.032396-.031822.0091687-.069151.0183374-.100973.032396m-1.207881.4862466c-.022642.0091687-.045897.0232274-.069151.0366748.023254-.0134474.046509-.0275061.069151-.0366748m1.887521-.6697428c.018358-.0042787.032433-.0042787.045896-.0091687-.013463.00489-.027538.00489-.045896.0091687m-.362707.0917481c.027538-.0091687.059971-.0183374.091793-.0232273-.031822.0048899-.064255.0140586-.091793.0232273m9.21736.9312341.197662-.1974326v-.4816623l-.432042.4266501c.08751.0825182.165229.1650365.23438.2524448"/><path d="m672.79679 40.0143965c-.069151-.0874083-.14687-.1699266-.23438-.2524448.08751.0825182.165229.1650365.23438.2524448"/><path d="m672.562533 39.7620739-8.694076 8.6882578c.100973.0550122.211737.1100244.32189.1558678l8.606565-8.5916808c-.069151-.0874082-.14687-.1699265-.234379-.2524448"/><path d="m672.783 38.955.211-.211-.128-.129h-.978l-.341.34z"/><path d="m672.236421 39.5005827.546477-.5458432h-1.235541l-.128511.1240831c.316994.119193.588091.2610022.817575.4217601"/><path d="m671.418968 39.0831624c.316994.1149144.588091.2567236.817575.4174814-.229484-.1607578-.500581-.302567-.817575-.4223713z"/><path d="m671.418968 39.0831624-8.597386 8.5825122c.165228.1699265.344532.3306843.537298.4724935.045897.0323961.091794.0599022.137691.0922982l8.739972-8.7298225c-.229484-.1607578-.500581-.302567-.817575-.4174814m-29.24121 3.1606334v.0091687z"/><path d="m642.178 39.354-.161-.161.161-.16z"/><path d="m642.77 38.615.487-.491.492.491z"/><path d="m654.775324 40.7208141c-.014075-.0232274-.023254-.0415648-.036717-.0599022.013463.0183374.022642.0366748.036717.0599022m.18371.646821c0-.0232274 0-.0415648-.004896-.0599022.004896.0183374.004896.0366748.004896.0599022m-.312343-.8486546c.014075.0183374.023254.0317848.032434.0458434-.00918-.0140586-.018359-.027506-.032434-.0409535zm.202068.3578237c-.009179-.0226162-.018359-.0415648-.027538-.0641809.009179.0226161.018359.0415647.027538.0641809m.110275.6559897v-.0415648zm-.050487-.4954764c-.009179-.0232274-.014075-.0458435-.023254-.0641809.009179.0183374.014075.0409535.023254.0641809m.032128.1605745c0-.0183374-.004284-.0415648-.009179-.0599022.004895.0183374.009179.0415648.009179.0599022m-12.299054 4.513872c-.004284-.0232274-.009179-.0458435-.013463-.0690709-.124227-.6925422-.252738-1.3716371-.340248-2.0183359.08751.6466988.216021 1.3257937.340248 2.0183359.004284.0232274.009179.0458435.013463.0690709"/><path d="m642.642 39.335v.482l-.464-.463v-.321l.078-.078z"/><path d="m654.054316 39.9501545c-.009179-.0091687-.023254-.0140587-.036717-.0232274.013463.0091687.027538.0140587.036717.0232274m.583196.5596573c.004895.0048899.009179.0048899.009179.0048899v.0091687s-.004284-.0091687-.009179-.0140586m-3.683248-1.6651578c-.036718-.0048899-.073435-.0091687-.115048-.0183373.041613.0091686.07833.0134474.115048.0183373m-.358179-.0550733c-.050792-.0048899-.096689-.0140586-.142586-.0183374.045897.0042788.091794.0134475.142586.0183374m-.376659-.0458435c-.050793-.0091686-.105869-.0140586-.15605-.0183373.050181.0042787.105257.0091687.15605.0183373m-2.062051-.128484h-.206842zm3.145888.2935817c-.009179 0-.022643-.0048899-.031822-.0048899.009179 0 .022643.0048899.031822.0048899m-1.474144-.2064179c-.055076-.00489-.110152-.0091687-.170124-.0140587.059972.00489.115048.0091687.170124.0140587m-.399608-.0367359c-.059972 0-.119331-.00489-.179303-.0091687.059972.0042787.119331.0091687.179303.0091687m-.835811-.0412592c-.064255 0-.133407 0-.197662-.0048899.064255.0048899.133407.0048899.197662.0048899m.422495.0183986c-.059971-.00489-.124227-.00489-.188482-.0091687.064255.0042787.128511.0042787.188482.0091687m5.221831 1.449571c-.004896-.0048899-.004896-.0048899-.009179-.0091687.004283.0042788.004283.0042788.009179.0091687m-7.697259-1.4404024c.216021-.0091686.43143-.0183373.638272-.0232273-.206842.00489-.422251.0140587-.638272.0232273-.766782.0458435-1.405053.1466992-1.933172.3025671h-.004896c.533015-.1558679 1.171286-.2610023 1.938068-.3025671m8.02331 1.7614902c-.014075-.0140587-.027538-.032396-.041613-.0507334.014075.0183374.027538.0366747.041613.0507334m-7.247164-1.7890574c.179303-.0048899.357995-.0091687.528119-.0091687-.170124 0-.348816.0042788-.528119.0091687m7.109351 1.6376517c-.013463-.0140587-.027538-.0275061-.041613-.0415648.014075.0140587.02815.0275061.041613.0415648m-.307692 5.2157664c-.128511.3575792-.28456.7108796-.468759 1.0458427.184199-.3349631.340248-.6882635.468759-1.0458427m-.468453-5.7800081s.004895 0 .009179.00489c-.004284-.00489-.009179-.00489-.009179-.00489"/><path d="m644.607289 38.9547395c.528119-.1558678 1.16639-.2567235 1.933172-.302567.216021-.0091687.432042-.0183374.638884-.0232273.045896-.0042788.091793-.0042788.13769-.0042788.178692-.0048899.357995-.0091687.528119-.0091687h.105869.206229c.078331.0042788.160945.0042788.238664.0042788.064867.0048899.133406.0048899.197662.0048899.07833.0042788.156049.0042788.234379.0091687.064256.0042788.128511.0042788.188483.0091687l.233768.0134474c.059972.00489.119331.0091687.179303.0091687.078331.0091687.156049.0140587.229484.0232274.059972.0042787.115048.0091687.170124.0134474.078331.00489.156049.0140587.23438.0232274.05018.0042787.105256.0091687.156049.0183374.077718.0091687.156049.0183374.23438.0275061.045896.0042787.091793.0134474.141974.0183374.082614.0134474.165228.0275061.243559.0366748.041001.0091687.07833.0134474.115047.0183374.110153.0183374.211126.0366748.316382.0592909.00918 0 .023255.00489.032434.00489.069151.0134474.13769.027506.206842.0458434zm9.258728.8715764c-.023254-.0140586-.041613-.0275061-.064255-.0415647.022642.0140586.041001.0275061.064255.0415647m-1.056299 7.8396643c.335352-.3392418.610733-.7292171.840217-1.1424197-.229484.4132026-.504865.8031779-.840217 1.1424197m.128572-8.2984048c-.031822-.0140586-.064255-.0232273-.100973-.0366748.036718.0134475.069151.0226162.100973.0366748m-8.72602-.2889973c.124228-.0458435.257022-.0874083.390429-.1240831h.004896c-.138303.0366748-.271097.0782396-.395325.1289731zm1.75442 9.7388071c-1.285722-.2982883-2.93923-1.0825175-3.324763-3.1057435.385533 2.023226 2.039041 2.8074552 3.324763 3.1057435"/><path d="m642.641621 40.2850564c.059972-.0965769.124227-.1833739.197662-.2707822l8.60167 8.5922921c-.13769.0592909-.279664.1191931-.43143.1650366-.482222.1515891-1.033595.2341074-1.653508.2341074h-1.786303-.050792c-.174408 0-.799216-.0091687-1.552536-.188264-1.285722-.2982883-2.93923-1.0825175-3.324763-3.1057434-.004284-.0226162-.009179-.0458435-.013463-.0684596-.124227-.6931536-.252738-1.3716372-.340248-2.018336-.064256-.4773835-.110152-.9364296-.110152-1.3716371v-.0091687c0-.7389971.119331-1.408312.463863-1.9590451m1.965668-1.3303169h6.902877c.045896.0091687.091793.0183374.132794.0275061.018359.00489.032434.00489.050793.0091687.091793.0232274.183587.0458435.271097.0690709.031822.0042787.05936.0134474.091793.0226161.073435.0183374.14687.0366748.216021.0599022.031822.0091687.068539.0183374.100973.0317848.064256.0183374.128511.0366748.187871.0599021.036717.0091687.069151.0226162.105869.0317849.059359.0232273.115048.0415647.170124.0641808.036717.0140587.068539.0232274.100973.0366748.055076.0232274.110152.0458435.160332.0647922.032434.0134474.064256.0275061.09669.0409535.05018.0232273.100973.0458435.151765.0690708.031822.0134475.05936.0275061.086898.0409535.050792.0275061.100973.0507335.14687.0782396.023254.0091687.045896.0226161.069151.0366748 0 0 .004284 0 .009179.0042787.050793.0275061.096077.0550122.142586.0825183.022643.0140587.041001.0275061.064256.0415648.055076.0317848.105256.0641808.151153.1008556.014075.0091687.027538.0140587.036718.0232274.064255.0458435.119331.086797.175019.1326405.004284.00489.004284.00489.00918.0091687.05018.0415647.100973.0874082.146869.1283617.013463.0140587.027538.0275061.041002.0415648.032433.0317848.064255.0684596.096689.1008557.013463.0183374.027538.0366748.041001.0507334.027538.0317849.050792.0641809.073435.0959657.004895.00489.009179.0091687.009179.0091687.014075.0183374.023254.0323961.032434.0458435.022642.0323961.041613.0641809.059972.096577.013463.0183374.022642.0366748.036717.0592909.018359.032396.031822.0599021.045897.091687.009179.0232273.018359.0415647.027538.0641808.013463.0323961.027538.0647922.036717.096577.00918.0183374.013463.0415648.022643.0641809.009179.032396.014075.0641809.023254.1008556.004284.0183374.009179.0415648.009179.0599022.00918.0366748.013464.0733496.013464.1100244.004895.0183374.004895.0366748.004895.0599021.004284.0409535.004284.0825183 0 .1234718v.0415648c-.004895.0592909-.014075.1191931-.023254.1742052-.082614.4400975-.160333 1.0550115-.289456 1.7432751-.096077.5458431-.229484 1.1326397-.42225 1.7249376-.032434.1008557-.069152.2017113-.105869.302567-.128511.3575792-.28456.7108797-.468147 1.0458428-.229484.4125914-.505477.8025666-.840217 1.1424197l-8.597999-8.5831234c.124228-.0501222.257634-.091687.395325-.1283618m2.96224 10.0507263h-.050793zm4.422675-.6789115c-.073435.0458435-.146869.0874082-.2252.124083.078331-.0366748.151765-.0782395.2252-.124083"/><path d="m643.068767 39.7620739c.073435-.0641809.151766-.1332517.23438-.1925426.031822-.0232274.064255-.0458435.096077-.0690709l8.739972 8.7298226c-.050792.0317848-.096689.0641808-.146869.0959657-.073435.0458434-.14687.0874082-.225201.124083zm8.37237 8.844309c-.137691.0599022-.280277.1191931-.43143.1650366.151153-.0458435.293739-.1051344.43143-.1650366"/><path d="m643.302963 39.569409c.032434-.0232273.064256-.0458435.096689-.0690708-.032433.0232273-.064255.0458435-.096689.0690708m9.364352-.3027504c-.036717-.0091687-.069151-.0232273-.105868-.032396.036717.0091687.069151.0232273.105868.032396m.528181.206418c-.031822-.0140587-.064256-.0275061-.09669-.0415648.032434.0140587.064868.0275061.09669.0415648m.238785.1100855c-.027538-.0140587-.055076-.0275061-.08751-.0415648.032434.0140587.059972.0275061.08751.0415648m-1.060889-.4082516c-.031821-.0140586-.069151-.0232273-.100973-.032396.031822.0091687.069152.0183374.100973.032396m1.20782.4862466c.023255.0091687.045897.0232274.069151.0366748-.023254-.0134474-.045896-.0275061-.069151-.0366748m-1.88752-.6697428c-.018359-.0042787-.031822-.0042787-.050793-.0091687.018971.00489.032434.00489.050793.0091687m.362829.0917481c-.031822-.0091687-.059972-.0183374-.091794-.0232273.031822.0048899.059972.0140586.091794.0232273m-9.217421.9312341-.197663-.1974326v-.4816623l.427147.4266501c-.082615.0825182-.160333.1650365-.229484.2524448"/><path d="m642.8391 40.0143965c.069151-.0874083.146869-.1699266.229484-.2524448-.082615.0825182-.160333.1650365-.229484.2524448"/><path d="m643.068767 39.7620739 8.698359 8.6882578c-.105256.0550122-.211125.1100244-.326173.1558678l-8.60167-8.5916808c.068539-.0874082.14687-.1699265.229484-.2524448"/><path d="m651.767188 48.4503928c-.105869.0550122-.211126.1100244-.326174.1558679.115048-.0458435.220305-.1008557.326174-.1558679"/><path d="m642.853 38.955-.211-.211.128-.129h.978l.34.34z"/><path d="m643.399469 39.5005827-.546478-.5458432h1.235542l.123615.1240831c-.312098.119193-.583195.2610022-.812679.4217601"/><path d="m644.21227 39.0831624c-.312098.1149144-.583195.2567236-.812679.4174814.229484-.1607578.500581-.302567.812679-.4223713z"/><path d="m644.21227 39.0831624 8.597387 8.5825122c-.160945.1699265-.339637.3306843-.537299.4724935-.041613.0323961-.08751.0599022-.133406.0922982l-8.739361-8.7298225c.229484-.1607578.500581-.302567.812679-.4174814m-1.143503.6789115 8.698359 8.6882578c-.105256.0550122-.211125.1100244-.326173.1558678l-8.60167-8.5916808c.068539-.0874082.14687-.1699265.229484-.2524448"/><path d="m644.21227 39.0831624 8.597387 8.5825122c-.160945.1699265-.339637.3306843-.537299.4724935-.041613.0323961-.08751.0599022-.133406.0922982l-8.739361-8.7298225c.229484-.1607578.500581-.302567.812679-.4174814m-1.143503.6789115 8.698359 8.6882578c-.105256.0550122-.211125.1100244-.326173.1558678l-8.60167-8.5916808c.068539-.0874082.14687-.1699265.229484-.2524448"/><path d="m644.21227 39.0831624 8.597387 8.5825122c-.160945.1699265-.339637.3306843-.537299.4724935-.041613.0323961-.08751.0599022-.133406.0922982l-8.739361-8.7298225c.229484-.1607578.500581-.302567.812679-.4174814"/><path d="m652.809718 47.6659802c-.160945.1699265-.339636.3300731-.537299.4724935.197663-.1424204.376354-.302567.537299-.4724935"/></g><path d="m674.952409 37.6422711c-1.294901-.0733496-6.149558-.6699262-11.375672.124083l-1.841991.297677s-.326173.101467-.799216.4999997c-.473043.3948652-.946086 1.1656471-2.985127 1.1656471h-.298635c-2.043325 0-2.516368-.7707819-2.989411-1.1656471-.473043-.3985327-.794932-.4999997-.794932-.4999997l-1.84138-.297677c-5.231009-.7940092-10.08077-.1790952-11.375671-.124083-1.102135.0507334-1.024417.523227-1.024417.523227v2.2108786s.831038.0042787 1.308977 2.6057438h1.033595v.0091687l.238664-.0183374c-.105869-1.3624685.096077-2.2616121.665809-2.9132008.665809-.7616132 1.855454-1.1790945 3.632578-1.2750602 3.844315-.2114913 6.921235.4449874 8.03255 1.7108789.335352.3850853.463863.8074566.381249 1.2524441-.041001.2066013-.078331.4541562-.119332.7292171-.027538.1515891-.050792.3166257-.07833.4816622l.239275.0415648c0-.0091687.004284-.0140587.004284-.0140587l1.396486-.0042787c.307203-.5415644.500581-.9132023 1.437487-.9358184.936907.0226161 1.133957.394254 1.437488.9358184h1.40077v.0183374l.242947-.0415648c-.027538-.1650365-.055076-.3209044-.077719-.4724935-.041613-.2799509-.07833-.5275058-.119331-.7383858-.08751-.4449875.041001-.8673588.381249-1.2524441 1.106418-1.2658915 4.183339-1.9223702 8.031938-1.7108789 1.777735.0959657 2.962484.513447 3.628294 1.2750602.569732.6515887.776573 1.5507323.665809 2.9132008l.119332.0091687.124227.0091687v-.0091687h1.0287c.482222-2.6014651 1.308977-2.6057438 1.308977-2.6057438v-2.2108786s.087509-.4407088-1.019521-.523227" fill="#333"/><path d="m640.164 39.532h1.419v-.646h-1.419z" fill="#333"/><path d="m674.016 39.532h1.419v-.646h-1.419z" fill="#333"/><path d="m645.881628 116.748754h.104033m23.462928 0h.263141" fill="#736c6c"/><path d="m851.711954 182.762704c0 27.006704-21.91847 48.89972-48.956574 48.89972-27.038103 0-48.956573-21.893016-48.956573-48.89972s21.91847-48.89972 48.956573-48.89972c27.038104 0 48.956574 21.893016 48.956574 48.89972" fill="#4dbcb6"/><path d="m824.333606 226.668527c-6.509584 3.197841-13.833903 4.993897-21.578226 4.993897-7.744808 0-15.069559-1.796282-21.579449-4.994499l.000004-5.946324c0-5.505498 4.510124-10.010384 10.022022-10.010384h23.113623c5.51251 0 10.022022 4.504886 10.022022 10.010384v5.946927z" fill="#0b6d79"/><path d="m810.786339 231.007678c-2.613002.430707-5.295785.654746-8.030959.654746-2.849793 0-5.642713-.243209-8.35909-.709981v-20.075456h16.390049z" fill="#eee"/><path d="m779.964749 171.501098s-.086286 19.074559 0 28.130176c.102197 10.738989 45.619571 12.410137 45.619571 0v-28.130176z" fill="#6b4339"/><path d="m810.786094 210.878393-8.194106 12.752435-8.194719-12.752435s5.093932-1.877138 5.093932-6.507942v-16.17725h6.024106s.203782 12.284221.176856 16.0006c-.032434 4.512833 5.093931 6.684592 5.093931 6.684592" fill="#b07345"/><path d="m784.674249 177.256045c-2.00722 0-3.633802 1.844742-3.633802 4.121024 0 2.275671 1.626582 4.120413 3.633802 4.120413 2.007219 0 3.633802-1.844742 3.633802-4.120413 0-2.276282-1.626583-4.121024-3.633802-4.121024m36.105473 0c-2.007219 0-3.633802 1.844742-3.633802 4.121024 0 2.275671 1.626583 4.120413 3.633802 4.120413 2.00722 0 3.633802-1.844742 3.633802-4.120413 0-2.276282-1.626582-4.121024-3.633802-4.121024" fill="#b97e4f"/><path d="m802.75538 159.946522c-11.378119 0-20.60215 6.759775-20.60215 17.117959 0 10.358794 7.421205 18.592285 20.60215 20.394239 13.753126-2.339851 20.601538-10.035445 20.601538-20.394239 0-10.358184-9.223418-17.117959-20.601538-17.117959" fill="#b97e4f"/><path d="m802.755 178.364-1.495 5.973h2.99z" fill="#b07345"/><path d="m825.584259 173.456415v5.698651c-9.246061-2.372859-12.246487-15.460258-12.291772-15.665025l-.001224-.002445s-.001224.001222-.004283.002445c-.365339.241442-24.833834 16.341064-33.360234 14.94192v-4.975546c0-10.696203 4.224953-19.367346 22.828451-19.367346 18.605334 0 22.829062 8.671143 22.829062 19.367346" fill="#6b4339"/><path d="m637.526944 316.014441c0 27.006704-21.91847 48.89972-48.956573 48.89972-27.038104 0-48.956574-21.893016-48.956574-48.89972s21.91847-48.89972 48.956574-48.89972c27.038103 0 48.956573 21.893016 48.956573 48.89972" fill="#3ea7b4"/><path d="m579.219114 364.02312c-4.615219-.891615-8.999321-2.430687-13.053781-4.518808l.226547-6.727489c0-4.872246 9.549592-8.864908 9.549592-8.864908h3.277642z" fill="#e2e2e2"/><path d="m574.091218 362.740234c-3.377056-1.042843-6.59792-2.440895-9.61884-4.150455.118761-1.034285.204435-1.774202.250022-2.160208.649898-5.449263 3.717639-8.634468 6.153229-9.702316l4.040141 9.168087c.303531-.133252.430818-.224328.461416-.248778-.060584.060514-.528731.545843-.692736 1.959656-.080269.674457-.291832 2.502007-.593232 5.134014zm36.985741-3.288373c-4.119782 2.13398-8.581692 3.700384-13.281946 4.595546v-20.135431h3.50835s9.549592 3.992662 9.549592 8.864908l.224001 6.674978z" fill="#e2e2e2"/><path d="m612.668306 358.589812c-3.020921 1.709555-6.241785 3.107601-9.618842 4.15044-.301401-2.632017-.512965-4.459574-.593234-5.134032-.164005-1.413813-.632152-1.899142-.692736-1.959656.030598.02445.157885.115526.461416.248778l4.040141-9.168087c2.43559 1.067848 5.503331 4.253053 6.153229 9.702316.045587.386011.131263 1.125939.250026 2.160241z" fill="#e2e2e2"/><path d="m597.315 361.404h-17.833l1.223-21.045h15.998z" fill="#ccc"/><path d="m599.594718 363.66934c-3.54328.814466-7.233495 1.244821-11.024347 1.244821-3.726779 0-7.356294-.41593-10.844555-1.203851v-19.185865l4.607426-1.070904 6.238903 5.960876 6.415147-6.002441 4.607426 1.112469z" fill="#fec232"/><path d="m582.864139 364.585546c-1.658515-.192299-3.291751-.467391-4.895456-.82103l-2.75746-19.254252 5.433568-4.150975zm16.246308-.807486c-1.615848.354123-3.261591.628524-4.932888.818868l2.49794-24.237639 5.433567 4.150975z" fill="#fff"/><path d="m594.987476 331.482156v19.737761c0 3.279338-2.68588 5.962098-5.96903 5.962098h-.716602c-3.28315 0-5.96903-2.68276-5.96903-5.962098v-19.737761zm-20.958799-10.189723h-4.019335c-1.745301 0-3.172997-1.426039-3.172997-3.169314v-6.286059c0-1.743275 1.427696-3.169313 3.172997-3.169313h4.019335zm29.262996 0h4.019335c1.745302 0 3.172998-1.426039 3.172998-3.169314v-6.286059c0-1.743275-1.427696-3.169313-3.172998-3.169313h-4.019335z" fill="#c18452"/><path d="m589.523188 337.894621h-1.578238c-7.812245 0-14.203526-4.170535-14.203526-11.785444v-24.68519l2.673641-9.168697h24.961121l2.35114 9.168697v24.68519c0 7.614909-6.391893 11.785444-14.204138 11.785444" fill="#cf986c"/><path d="m584.893 323.288h7.534l-1.998-11.537h-3.361z" fill="#c18452"/><path d="m575.199106 294.843919v16.51588h-2.834585v-13.977374c0-8.539724 6.995282-13.216371 15.544936-13.216371h1.501743c8.549653 0 15.544324 4.676647 15.544324 13.216371v13.977374h-2.675477v-16.51588z" fill="#6b4339"/><path d="m595.813128 279.9597c1.424637 2.228604 1.109479 5.478602-1.121717 6.901584l-3.179118-2.539118c2.411724 0 4.367539-1.952933 4.367539-4.362466z" fill="#6b4339"/><path d="m599.62091 280.910555c1.424636 2.228604 1.109478 5.478602-1.121718 6.901584l-3.179117-2.539118c2.411723 0 4.367538-1.952933 4.367538-4.362466z" fill="#6b4339"/></g></svg>